<?xml version="1.0" encoding="UTF-8" standalone="no"?>
<svg
   xmlns:dc="http://purl.org/dc/elements/1.1/"
   xmlns:cc="http://creativecommons.org/ns#"
   xmlns:rdf="http://www.w3.org/1999/02/22-rdf-syntax-ns#"
   xmlns:svg="http://www.w3.org/2000/svg"
   xmlns="http://www.w3.org/2000/svg"
   xmlns:xlink="http://www.w3.org/1999/xlink"
   width="128"
   height="128"
   style="enable-background:new 0 0 128 128;"
   version="1.1"
   id="svg326">
  <metadata
     id="metadata332">
    <rdf:RDF>
      <cc:Work
         rdf:about="">
        <dc:format>image/svg+xml</dc:format>
        <dc:type
           rdf:resource="http://purl.org/dc/dcmitype/StillImage" />
        <dc:title></dc:title>
      </cc:Work>
    </rdf:RDF>
  </metadata>
  <defs
     id="defs330" />
  <symbol
     id="Grid"
     viewBox="-64.5 -64.5 129 129">
    <g
       id="XMLID_102_">
      <rect
         id="XMLID_110_"
         height="128"
         style="fill:none;stroke:#4285F4;stroke-miterlimit:10;"
         width="128"
         x="-64"
         y="-64" />
      <path
         id="XMLID_109_"
         d="M36.95,37.82C27.32,46.32,14.2,51,0,51 c-14.27,0-27.39-4.62-36.96-13.01C-47.45,28.79-53,15.65-53,0c0-15.58,5.55-28.69,16.04-37.92C-27.36-46.35-14.24-51,0-51 c14.17,0,27.29,4.71,36.95,13.25C47.45-28.45,53-15.4,53,0C53,15.47,47.45,28.55,36.95,37.82z"
         style="fill:none;stroke:#4285F4;stroke-miterlimit:10;" />
      <path
         id="XMLID_108_"
         d="M0,55L0,55L0,55c-29.59,0-57-19.01-57-55 c0-35.8,27.41-55,57-55h0h0c29.59,0,57,19.69,57,55C57,35.51,29.59,55,0,55z"
         style="fill:none;stroke:#4285F4;stroke-miterlimit:10;" />
      <path
         id="XMLID_107_"
         d="M0-43c-12.29,0-23.54,3.94-31.68,11.09 C-40.39-24.25-45-13.21-45,0c0,29.7,22.6,43,45,43c21.67,0,45-13.46,45-43S21.67-43,0-43L0-43z"
         style="fill:none;stroke:#4285F4;stroke-miterlimit:10;" />
      <line
         id="XMLID_106_"
         style="fill:none;stroke:#4285F4;stroke-miterlimit:10;"
         x1="-0.01"
         x2="-0.01"
         y1="51"
         y2="-51" />
      <line
         id="XMLID_105_"
         style="fill:none;stroke:#4285F4;stroke-miterlimit:10;"
         x1="-16"
         x2="-16"
         y1="48.95"
         y2="-48.93" />
      <line
         id="XMLID_104_"
         style="fill:none;stroke:#4285F4;stroke-miterlimit:10;"
         x1="15.99"
         x2="15.99"
         y1="48.91"
         y2="-48.93" />
      <line
         id="XMLID_103_"
         style="fill:none;stroke:#4285F4;stroke-miterlimit:10;"
         x1="53"
         x2="-53"
         y1="0.08"
         y2="0.08" />
    </g>
  </symbol>
  <g
     id="Layer_1">
    <g
       id="g29">
      <linearGradient
         id="SVGID_1_"
         gradientUnits="userSpaceOnUse"
         x1="63.991501"
         x2="63.991501"
         y1="20.7015"
         y2="106.7301">
        <stop
           offset="0.5"
           style="stop-color:#FEE133"
           id="stop12" />
        <stop
           offset="0.6118"
           style="stop-color:#FEDE32"
           id="stop14" />
        <stop
           offset="0.7076"
           style="stop-color:#FCD32F"
           id="stop16" />
        <stop
           offset="0.7975"
           style="stop-color:#FAC12B"
           id="stop18" />
        <stop
           offset="0.8834"
           style="stop-color:#F7A924"
           id="stop20" />
        <stop
           offset="0.9"
           style="stop-color:#F6A323"
           id="stop22" />
      </linearGradient>
      <path
         d="M 63.99,118.65 C 36.68,118.65 7.28,101.55 7.28,64 7.28,26.45 36.68,9.35 63.99,9.35 c 15.14,0 29.15,5.01 39.46,14.11 11.29,9.96 17.25,23.98 17.25,40.54 0,16.49 -5.96,30.48 -17.25,40.47 -10.33,9.14 -24.35,14.18 -39.46,14.18 z"
         style="fill:url(#SVGID_1_)"
         id="path25" />
      <path
         d="m 63.99,11.35 v 0 c 14.65,0 28.19,4.83 38.14,13.61 10.84,9.57 16.57,23.07 16.57,39.04 0,15.9 -5.73,29.37 -16.58,38.97 -9.97,8.82 -23.51,13.68 -38.14,13.68 -14.69,0 -28.24,-4.8 -38.15,-13.5 C 15.01,93.62 9.28,80.08 9.28,64 9.28,47.84 15.01,34.28 25.84,24.78 35.72,16.12 49.27,11.35 63.99,11.35 m 0,-4 v 0 0 0 C 33.51,7.35 5.28,26.93 5.28,64 c 0,36.87 28.23,56.65 58.71,56.65 v 0 0 0 C 94.47,120.65 122.7,100.37 122.7,64 122.7,27.43 94.47,7.35 63.99,7.35 Z"
         style="fill:#eb8f00"
         id="path27" />
    </g>
    <g
       id="g37">
      <path
         d="m 124,45.42 c 0,0 -4.26,0.09 -4.26,3.5 0,8.42 0.09,26.49 -21.96,26.49 -17.66,0 -26.09,-9.12 -27.51,-19.19 -0.59,-4.19 -2.04,-8.76 -6.27,-8.76 -4.23,0 -5.69,4.57 -6.27,8.76 C 56.31,66.29 47.88,75.41 30.22,75.41 8.17,75.41 8.26,57.34 8.26,48.92 8.26,45.51 4,45.42 4,45.42 v -8.34 c 0,0 8.18,-1.26 20.66,-1.26 12.48,0 17.45,0 27.38,0.99 5.86,0.59 11.96,0.66 11.96,0.66 0,0 6.1,-0.06 11.97,-0.65 9.93,-0.99 14.9,-0.99 27.38,-0.99 12.48,0 20.66,1.26 20.66,1.26 v 8.33 z"
         id="path31" />
      <path
         d="m 21.12,51.95 c -0.1,1.6 -0.74,3.08 -2.31,3.37 -0.18,0.03 -0.36,0.05 -0.54,0.05 -1.36,0 -2.58,-0.97 -2.84,-2.36 -0.56,-2.98 0.09,-5.77 1.82,-7.86 1.62,-1.96 4.02,-3.08 6.58,-3.08 1.6,0 3.01,0.99 3.01,2.58 0,1.88 -1.5,2.67 -3.01,3.2 -1.41,0.51 -2.59,2.16 -2.71,4.1 z"
         style="fill:#00adef;fill-opacity:1"
         id="path33" />
      <path
         d="m 84.7,51.95 c -0.1,1.6 -0.74,3.08 -2.31,3.37 -0.18,0.03 -0.36,0.05 -0.54,0.05 -1.36,0 -2.58,-0.97 -2.84,-2.36 -0.56,-2.98 0.09,-5.77 1.82,-7.86 1.62,-1.96 4.02,-3.08 6.58,-3.08 1.6,0 3.01,0.99 3.01,2.58 0,1.88 -1.5,2.67 -3.01,3.2 -1.4,0.51 -2.59,2.16 -2.71,4.1 z"
         style="fill:#00adef;fill-opacity:1"
         id="path35" />
    </g>
    <path
       d="m 64,93.81 c -11.51,0 -19.73,-5.97 -22.2,-9.74 -0.95,-1.45 -1.14,-3.03 -0.5,-4.22 0.48,-0.9 1.36,-1.41 2.42,-1.41 0.35,0 0.72,0.06 1.09,0.18 5.8,1.82 12.45,2.78 19.24,2.78 6.74,0 13.37,-0.96 19.16,-2.78 0.37,-0.12 0.74,-0.18 1.09,-0.18 1.05,0 1.93,0.51 2.41,1.41 0.64,1.19 0.45,2.76 -0.5,4.22 -2.48,3.76 -10.7,9.74 -22.21,9.74 z"
       style="fill:#242424"
       id="path39" />
  </g>
  <g
     id="Layer_2"
     style="display:none;">
    <g
       style="display:inline;"
       id="g288">
      <g
         style="opacity:0.6;"
         id="g70">
        <circle
           cx="64"
           cy="64"
           r="28"
           style="opacity:0.61;fill:none;stroke:#000000;stroke-width:0.2625;stroke-miterlimit:10;"
           id="circle42" />
        <line
           style="opacity:0.61;fill:none;stroke:#000000;stroke-width:0.25;stroke-miterlimit:10;"
           x1="84"
           x2="84"
           y1="0"
           y2="128"
           id="line44" />
        <line
           style="opacity:0.61;fill:none;stroke:#000000;stroke-width:0.25;stroke-miterlimit:10;"
           x1="44"
           x2="44"
           y1="0"
           y2="128"
           id="line46" />
        <line
           style="opacity:0.61;fill:none;stroke:#000000;stroke-width:0.25;stroke-miterlimit:10;"
           x1="64"
           x2="64"
           y1="0"
           y2="128"
           id="line48" />
        <line
           style="opacity:0.61;fill:none;stroke:#000000;stroke-width:0.25;stroke-miterlimit:10;"
           x1="128"
           x2="0"
           y1="64"
           y2="64"
           id="line50" />
        <line
           style="opacity:0.61;fill:none;stroke:#000000;stroke-width:0.25;stroke-miterlimit:10;"
           x1="128"
           x2="0"
           y1="44"
           y2="44"
           id="line52" />
        <line
           style="opacity:0.61;fill:none;stroke:#000000;stroke-width:0.25;stroke-miterlimit:10;"
           x1="128"
           x2="0"
           y1="83.75"
           y2="83.75"
           id="line54" />
        <line
           style="opacity:0.61;fill:none;stroke:#000000;stroke-width:0.25;stroke-miterlimit:10;"
           x1="128"
           x2="0"
           y1="128"
           y2="0"
           id="line56" />
        <line
           style="opacity:0.61;fill:none;stroke:#000000;stroke-width:0.25;stroke-miterlimit:10;"
           x1="0"
           x2="128"
           y1="128"
           y2="0"
           id="line58" />
        <g
           style="opacity:0.61;"
           id="g62">
          <path
             d="M64,4.26c32.94,0,59.74,26.8,59.74,59.74S96.94,123.74,64,123.74S4.26,96.94,4.26,64S31.06,4.26,64,4.26 M64,4 C30.86,4,4,30.86,4,64s26.86,60,60,60s60-26.86,60-60S97.14,4,64,4L64,4z"
             id="path60" />
        </g>
        <path
           d="M107.97,115.97H20.03 c-4.42,0-8.03-3.61-8.03-8.03V20.03c0-4.42,3.61-8.03,8.03-8.03h87.94c4.42,0,8.03,3.61,8.03,8.03v87.91 C116,112.36,112.39,115.97,107.97,115.97z"
           style="opacity:0.61;fill:none;stroke:#000000;stroke-width:0.2578;stroke-miterlimit:10;"
           id="path64" />
        <path
           d="M100,124H28c-4.4,0-8-3.6-8-8 V12c0-4.4,3.6-8,8-8h72c4.4,0,8,3.6,8,8v104C108,120.4,104.4,124,100,124z"
           style="opacity:0.61;fill:none;stroke:#000000;stroke-width:0.2628;stroke-miterlimit:10;"
           id="path66" />
        <path
           d="M113.77,108H14.23 C8.6,108,4,103.4,4,97.77V30.28c0-5.63,4.6-10.23,10.23-10.23h99.54c5.63,0,10.23,4.6,10.23,10.23v67.48 C124,103.4,119.4,108,113.77,108z"
           style="opacity:0.61;fill:none;stroke:#000000;stroke-width:0.2627;stroke-miterlimit:10;"
           id="path68" />
      </g>
      <g
         id="g286">
        <g
           style="opacity:0.2;"
           id="g274">
          <defs
             id="defs73">
            <rect
               id="SVGID_2_"
               height="128"
               style="opacity:0.2;"
               width="128"
               x="0"
               y="0" />
          </defs>
          <clipPath
             id="SVGID_3_">
            <use
               style="overflow:visible;"
               xlink:href="#SVGID_2_"
               id="use75" />
          </clipPath>
          <g
             style="clip-path:url(#SVGID_3_);"
             clip-path="url(#SVGID_3_)"
             id="g272">
            <g
               id="g172">
              <line
                 style="fill:none;stroke:#000000;stroke-width:0.25;stroke-miterlimit:10;"
                 x1="-28"
                 x2="-28"
                 y1="160"
                 y2="-32"
                 id="line78" />
              <line
                 style="fill:none;stroke:#000000;stroke-width:0.25;stroke-miterlimit:10;"
                 x1="-24"
                 x2="-24"
                 y1="160"
                 y2="-32"
                 id="line80" />
              <line
                 style="fill:none;stroke:#000000;stroke-width:0.25;stroke-miterlimit:10;"
                 x1="-20"
                 x2="-20"
                 y1="160"
                 y2="-32"
                 id="line82" />
              <line
                 style="fill:none;stroke:#000000;stroke-width:0.25;stroke-miterlimit:10;"
                 x1="-16"
                 x2="-16"
                 y1="160"
                 y2="-32"
                 id="line84" />
              <line
                 style="fill:none;stroke:#000000;stroke-width:0.25;stroke-miterlimit:10;"
                 x1="-12"
                 x2="-12"
                 y1="160"
                 y2="-32"
                 id="line86" />
              <line
                 style="fill:none;stroke:#000000;stroke-width:0.25;stroke-miterlimit:10;"
                 x1="-8"
                 x2="-8"
                 y1="160"
                 y2="-32"
                 id="line88" />
              <line
                 style="fill:none;stroke:#000000;stroke-width:0.25;stroke-miterlimit:10;"
                 x1="-4"
                 x2="-4"
                 y1="160"
                 y2="-32"
                 id="line90" />
              <line
                 style="fill:none;stroke:#000000;stroke-width:0.25;stroke-miterlimit:10;"
                 x1="0"
                 x2="0"
                 y1="160"
                 y2="-32"
                 id="line92" />
              <line
                 style="fill:none;stroke:#000000;stroke-width:0.25;stroke-miterlimit:10;"
                 x1="4"
                 x2="4"
                 y1="160"
                 y2="-32"
                 id="line94" />
              <line
                 style="fill:none;stroke:#000000;stroke-width:0.25;stroke-miterlimit:10;"
                 x1="8"
                 x2="8"
                 y1="160"
                 y2="-32"
                 id="line96" />
              <line
                 style="fill:none;stroke:#000000;stroke-width:0.25;stroke-miterlimit:10;"
                 x1="12"
                 x2="12"
                 y1="160"
                 y2="-32"
                 id="line98" />
              <line
                 style="fill:none;stroke:#000000;stroke-width:0.25;stroke-miterlimit:10;"
                 x1="16"
                 x2="16"
                 y1="160"
                 y2="-32"
                 id="line100" />
              <line
                 style="fill:none;stroke:#000000;stroke-width:0.25;stroke-miterlimit:10;"
                 x1="20"
                 x2="20"
                 y1="160"
                 y2="-32"
                 id="line102" />
              <line
                 style="fill:none;stroke:#000000;stroke-width:0.25;stroke-miterlimit:10;"
                 x1="24"
                 x2="24"
                 y1="160"
                 y2="-32"
                 id="line104" />
              <line
                 style="fill:none;stroke:#000000;stroke-width:0.25;stroke-miterlimit:10;"
                 x1="28"
                 x2="28"
                 y1="160"
                 y2="-32"
                 id="line106" />
              <line
                 style="fill:none;stroke:#000000;stroke-width:0.25;stroke-miterlimit:10;"
                 x1="32"
                 x2="32"
                 y1="160"
                 y2="-32"
                 id="line108" />
              <line
                 style="fill:none;stroke:#000000;stroke-width:0.25;stroke-miterlimit:10;"
                 x1="36"
                 x2="36"
                 y1="160"
                 y2="-32"
                 id="line110" />
              <line
                 style="fill:none;stroke:#000000;stroke-width:0.25;stroke-miterlimit:10;"
                 x1="40"
                 x2="40"
                 y1="160"
                 y2="-32"
                 id="line112" />
              <line
                 style="fill:none;stroke:#000000;stroke-width:0.25;stroke-miterlimit:10;"
                 x1="44"
                 x2="44"
                 y1="160"
                 y2="-32"
                 id="line114" />
              <line
                 style="fill:none;stroke:#000000;stroke-width:0.25;stroke-miterlimit:10;"
                 x1="48"
                 x2="48"
                 y1="160"
                 y2="-32"
                 id="line116" />
              <line
                 style="fill:none;stroke:#000000;stroke-width:0.25;stroke-miterlimit:10;"
                 x1="52"
                 x2="52"
                 y1="160"
                 y2="-32"
                 id="line118" />
              <line
                 style="fill:none;stroke:#000000;stroke-width:0.25;stroke-miterlimit:10;"
                 x1="56"
                 x2="56"
                 y1="160"
                 y2="-32"
                 id="line120" />
              <line
                 style="fill:none;stroke:#000000;stroke-width:0.25;stroke-miterlimit:10;"
                 x1="60"
                 x2="60"
                 y1="160"
                 y2="-32"
                 id="line122" />
              <line
                 style="fill:none;stroke:#000000;stroke-width:0.25;stroke-miterlimit:10;"
                 x1="64"
                 x2="64"
                 y1="160"
                 y2="-32"
                 id="line124" />
              <line
                 style="fill:none;stroke:#000000;stroke-width:0.25;stroke-miterlimit:10;"
                 x1="68"
                 x2="68"
                 y1="160"
                 y2="-32"
                 id="line126" />
              <line
                 style="fill:none;stroke:#000000;stroke-width:0.25;stroke-miterlimit:10;"
                 x1="72"
                 x2="72"
                 y1="160"
                 y2="-32"
                 id="line128" />
              <line
                 style="fill:none;stroke:#000000;stroke-width:0.25;stroke-miterlimit:10;"
                 x1="76"
                 x2="76"
                 y1="160"
                 y2="-32"
                 id="line130" />
              <line
                 style="fill:none;stroke:#000000;stroke-width:0.25;stroke-miterlimit:10;"
                 x1="80"
                 x2="80"
                 y1="160"
                 y2="-32"
                 id="line132" />
              <line
                 style="fill:none;stroke:#000000;stroke-width:0.25;stroke-miterlimit:10;"
                 x1="84"
                 x2="84"
                 y1="160"
                 y2="-32"
                 id="line134" />
              <line
                 style="fill:none;stroke:#000000;stroke-width:0.25;stroke-miterlimit:10;"
                 x1="88"
                 x2="88"
                 y1="160"
                 y2="-32"
                 id="line136" />
              <line
                 style="fill:none;stroke:#000000;stroke-width:0.25;stroke-miterlimit:10;"
                 x1="92"
                 x2="92"
                 y1="160"
                 y2="-32"
                 id="line138" />
              <line
                 style="fill:none;stroke:#000000;stroke-width:0.25;stroke-miterlimit:10;"
                 x1="96"
                 x2="96"
                 y1="160"
                 y2="-32"
                 id="line140" />
              <line
                 style="fill:none;stroke:#000000;stroke-width:0.25;stroke-miterlimit:10;"
                 x1="100"
                 x2="100"
                 y1="160"
                 y2="-32"
                 id="line142" />
              <line
                 style="fill:none;stroke:#000000;stroke-width:0.25;stroke-miterlimit:10;"
                 x1="104"
                 x2="104"
                 y1="160"
                 y2="-32"
                 id="line144" />
              <line
                 style="fill:none;stroke:#000000;stroke-width:0.25;stroke-miterlimit:10;"
                 x1="108"
                 x2="108"
                 y1="160"
                 y2="-32"
                 id="line146" />
              <line
                 style="fill:none;stroke:#000000;stroke-width:0.25;stroke-miterlimit:10;"
                 x1="112"
                 x2="112"
                 y1="160"
                 y2="-32"
                 id="line148" />
              <line
                 style="fill:none;stroke:#000000;stroke-width:0.25;stroke-miterlimit:10;"
                 x1="116"
                 x2="116"
                 y1="160"
                 y2="-32"
                 id="line150" />
              <line
                 style="fill:none;stroke:#000000;stroke-width:0.25;stroke-miterlimit:10;"
                 x1="120"
                 x2="120"
                 y1="160"
                 y2="-32"
                 id="line152" />
              <line
                 style="fill:none;stroke:#000000;stroke-width:0.25;stroke-miterlimit:10;"
                 x1="124"
                 x2="124"
                 y1="160"
                 y2="-32"
                 id="line154" />
              <line
                 style="fill:none;stroke:#000000;stroke-width:0.25;stroke-miterlimit:10;"
                 x1="128"
                 x2="128"
                 y1="160"
                 y2="-32"
                 id="line156" />
              <line
                 style="fill:none;stroke:#000000;stroke-width:0.25;stroke-miterlimit:10;"
                 x1="132"
                 x2="132"
                 y1="160"
                 y2="-32"
                 id="line158" />
              <line
                 style="fill:none;stroke:#000000;stroke-width:0.25;stroke-miterlimit:10;"
                 x1="136"
                 x2="136"
                 y1="160"
                 y2="-32"
                 id="line160" />
              <line
                 style="fill:none;stroke:#000000;stroke-width:0.25;stroke-miterlimit:10;"
                 x1="137"
                 x2="137"
                 y1="166.05"
                 y2="-25.95"
                 id="line162" />
              <line
                 style="fill:none;stroke:#000000;stroke-width:0.25;stroke-miterlimit:10;"
                 x1="144"
                 x2="144"
                 y1="160"
                 y2="-32"
                 id="line164" />
              <line
                 style="fill:none;stroke:#000000;stroke-width:0.25;stroke-miterlimit:10;"
                 x1="148"
                 x2="148"
                 y1="160"
                 y2="-32"
                 id="line166" />
              <line
                 style="fill:none;stroke:#000000;stroke-width:0.25;stroke-miterlimit:10;"
                 x1="152"
                 x2="152"
                 y1="160"
                 y2="-32"
                 id="line168" />
              <line
                 style="fill:none;stroke:#000000;stroke-width:0.25;stroke-miterlimit:10;"
                 x1="156"
                 x2="156"
                 y1="160"
                 y2="-32"
                 id="line170" />
            </g>
            <g
               id="g268">
              <line
                 style="fill:none;stroke:#000000;stroke-width:0.25;stroke-miterlimit:10;"
                 x1="-32"
                 x2="160"
                 y1="-28"
                 y2="-28"
                 id="line174" />
              <line
                 style="fill:none;stroke:#000000;stroke-width:0.25;stroke-miterlimit:10;"
                 x1="-32"
                 x2="160"
                 y1="-24"
                 y2="-24"
                 id="line176" />
              <line
                 style="fill:none;stroke:#000000;stroke-width:0.25;stroke-miterlimit:10;"
                 x1="-32"
                 x2="160"
                 y1="-20"
                 y2="-20"
                 id="line178" />
              <line
                 style="fill:none;stroke:#000000;stroke-width:0.25;stroke-miterlimit:10;"
                 x1="-32"
                 x2="160"
                 y1="-16"
                 y2="-16"
                 id="line180" />
              <line
                 style="fill:none;stroke:#000000;stroke-width:0.25;stroke-miterlimit:10;"
                 x1="-32"
                 x2="160"
                 y1="-12"
                 y2="-12"
                 id="line182" />
              <line
                 style="fill:none;stroke:#000000;stroke-width:0.25;stroke-miterlimit:10;"
                 x1="-32"
                 x2="160"
                 y1="-8"
                 y2="-8"
                 id="line184" />
              <line
                 style="fill:none;stroke:#000000;stroke-width:0.25;stroke-miterlimit:10;"
                 x1="-32"
                 x2="160"
                 y1="-4"
                 y2="-4"
                 id="line186" />
              <line
                 style="fill:none;stroke:#000000;stroke-width:0.25;stroke-miterlimit:10;"
                 x1="-32"
                 x2="160"
                 y1="0"
                 y2="0"
                 id="line188" />
              <line
                 style="fill:none;stroke:#000000;stroke-width:0.25;stroke-miterlimit:10;"
                 x1="-32"
                 x2="160"
                 y1="4"
                 y2="4"
                 id="line190" />
              <line
                 style="fill:none;stroke:#000000;stroke-width:0.25;stroke-miterlimit:10;"
                 x1="-32"
                 x2="160"
                 y1="8"
                 y2="8"
                 id="line192" />
              <line
                 style="fill:none;stroke:#000000;stroke-width:0.25;stroke-miterlimit:10;"
                 x1="-32"
                 x2="160"
                 y1="12"
                 y2="12"
                 id="line194" />
              <line
                 style="fill:none;stroke:#000000;stroke-width:0.25;stroke-miterlimit:10;"
                 x1="-32"
                 x2="160"
                 y1="16"
                 y2="16"
                 id="line196" />
              <line
                 style="fill:none;stroke:#000000;stroke-width:0.25;stroke-miterlimit:10;"
                 x1="-32"
                 x2="160"
                 y1="20"
                 y2="20"
                 id="line198" />
              <line
                 style="fill:none;stroke:#000000;stroke-width:0.25;stroke-miterlimit:10;"
                 x1="-32"
                 x2="160"
                 y1="24"
                 y2="24"
                 id="line200" />
              <line
                 style="fill:none;stroke:#000000;stroke-width:0.25;stroke-miterlimit:10;"
                 x1="-32"
                 x2="160"
                 y1="28"
                 y2="28"
                 id="line202" />
              <line
                 style="fill:none;stroke:#000000;stroke-width:0.25;stroke-miterlimit:10;"
                 x1="-32"
                 x2="160"
                 y1="32"
                 y2="32"
                 id="line204" />
              <line
                 style="fill:none;stroke:#000000;stroke-width:0.25;stroke-miterlimit:10;"
                 x1="-32"
                 x2="160"
                 y1="36"
                 y2="36"
                 id="line206" />
              <line
                 style="fill:none;stroke:#000000;stroke-width:0.25;stroke-miterlimit:10;"
                 x1="-32"
                 x2="160"
                 y1="40"
                 y2="40"
                 id="line208" />
              <line
                 style="fill:none;stroke:#000000;stroke-width:0.25;stroke-miterlimit:10;"
                 x1="-32"
                 x2="160"
                 y1="44"
                 y2="44"
                 id="line210" />
              <line
                 style="fill:none;stroke:#000000;stroke-width:0.25;stroke-miterlimit:10;"
                 x1="-32"
                 x2="160"
                 y1="48"
                 y2="48"
                 id="line212" />
              <line
                 style="fill:none;stroke:#000000;stroke-width:0.25;stroke-miterlimit:10;"
                 x1="-32"
                 x2="160"
                 y1="52"
                 y2="52"
                 id="line214" />
              <line
                 style="fill:none;stroke:#000000;stroke-width:0.25;stroke-miterlimit:10;"
                 x1="-32"
                 x2="160"
                 y1="56"
                 y2="56"
                 id="line216" />
              <line
                 style="fill:none;stroke:#000000;stroke-width:0.25;stroke-miterlimit:10;"
                 x1="-32"
                 x2="160"
                 y1="60"
                 y2="60"
                 id="line218" />
              <line
                 style="fill:none;stroke:#000000;stroke-width:0.25;stroke-miterlimit:10;"
                 x1="-32"
                 x2="160"
                 y1="64"
                 y2="64"
                 id="line220" />
              <line
                 style="fill:none;stroke:#000000;stroke-width:0.25;stroke-miterlimit:10;"
                 x1="-32"
                 x2="160"
                 y1="68"
                 y2="68"
                 id="line222" />
              <line
                 style="fill:none;stroke:#000000;stroke-width:0.25;stroke-miterlimit:10;"
                 x1="-32"
                 x2="160"
                 y1="72"
                 y2="72"
                 id="line224" />
              <line
                 style="fill:none;stroke:#000000;stroke-width:0.25;stroke-miterlimit:10;"
                 x1="-32"
                 x2="160"
                 y1="76"
                 y2="76"
                 id="line226" />
              <line
                 style="fill:none;stroke:#000000;stroke-width:0.25;stroke-miterlimit:10;"
                 x1="-32"
                 x2="160"
                 y1="80"
                 y2="80"
                 id="line228" />
              <line
                 style="fill:none;stroke:#000000;stroke-width:0.25;stroke-miterlimit:10;"
                 x1="-32"
                 x2="160"
                 y1="84"
                 y2="84"
                 id="line230" />
              <line
                 style="fill:none;stroke:#000000;stroke-width:0.25;stroke-miterlimit:10;"
                 x1="-32"
                 x2="160"
                 y1="88"
                 y2="88"
                 id="line232" />
              <line
                 style="fill:none;stroke:#000000;stroke-width:0.25;stroke-miterlimit:10;"
                 x1="-32"
                 x2="160"
                 y1="92"
                 y2="92"
                 id="line234" />
              <line
                 style="fill:none;stroke:#000000;stroke-width:0.25;stroke-miterlimit:10;"
                 x1="-32"
                 x2="160"
                 y1="96"
                 y2="96"
                 id="line236" />
              <line
                 style="fill:none;stroke:#000000;stroke-width:0.25;stroke-miterlimit:10;"
                 x1="-32"
                 x2="160"
                 y1="100"
                 y2="100"
                 id="line238" />
              <line
                 style="fill:none;stroke:#000000;stroke-width:0.25;stroke-miterlimit:10;"
                 x1="-32"
                 x2="160"
                 y1="104"
                 y2="104"
                 id="line240" />
              <line
                 style="fill:none;stroke:#000000;stroke-width:0.25;stroke-miterlimit:10;"
                 x1="-32"
                 x2="160"
                 y1="108"
                 y2="108"
                 id="line242" />
              <line
                 style="fill:none;stroke:#000000;stroke-width:0.25;stroke-miterlimit:10;"
                 x1="-32"
                 x2="160"
                 y1="112"
                 y2="112"
                 id="line244" />
              <line
                 style="fill:none;stroke:#000000;stroke-width:0.25;stroke-miterlimit:10;"
                 x1="-32"
                 x2="160"
                 y1="116"
                 y2="116"
                 id="line246" />
              <line
                 style="fill:none;stroke:#000000;stroke-width:0.25;stroke-miterlimit:10;"
                 x1="-32"
                 x2="160"
                 y1="120"
                 y2="120"
                 id="line248" />
              <line
                 style="fill:none;stroke:#000000;stroke-width:0.25;stroke-miterlimit:10;"
                 x1="-32"
                 x2="160"
                 y1="124"
                 y2="124"
                 id="line250" />
              <line
                 style="fill:none;stroke:#000000;stroke-width:0.25;stroke-miterlimit:10;"
                 x1="-32"
                 x2="160"
                 y1="128"
                 y2="128"
                 id="line252" />
              <line
                 style="fill:none;stroke:#000000;stroke-width:0.25;stroke-miterlimit:10;"
                 x1="-32"
                 x2="160"
                 y1="132"
                 y2="132"
                 id="line254" />
              <line
                 style="fill:none;stroke:#000000;stroke-width:0.25;stroke-miterlimit:10;"
                 x1="-32"
                 x2="160"
                 y1="136"
                 y2="136"
                 id="line256" />
              <line
                 style="fill:none;stroke:#000000;stroke-width:0.25;stroke-miterlimit:10;"
                 x1="-32"
                 x2="160"
                 y1="140"
                 y2="140"
                 id="line258" />
              <line
                 style="fill:none;stroke:#000000;stroke-width:0.25;stroke-miterlimit:10;"
                 x1="-32"
                 x2="160"
                 y1="144"
                 y2="144"
                 id="line260" />
              <line
                 style="fill:none;stroke:#000000;stroke-width:0.25;stroke-miterlimit:10;"
                 x1="-32"
                 x2="160"
                 y1="148"
                 y2="148"
                 id="line262" />
              <line
                 style="fill:none;stroke:#000000;stroke-width:0.25;stroke-miterlimit:10;"
                 x1="-32"
                 x2="160"
                 y1="152"
                 y2="152"
                 id="line264" />
              <line
                 style="fill:none;stroke:#000000;stroke-width:0.25;stroke-miterlimit:10;"
                 x1="-32"
                 x2="160"
                 y1="156"
                 y2="156"
                 id="line266" />
            </g>
            <path
               d="M159.75-31.75v191.5h-191.5v-191.5H159.75 M160-32H-32v192h192V-32L160-32z"
               id="path270" />
          </g>
        </g>
        <g
           id="g284">
          <rect
             height="128"
             style="opacity:0.3;fill:#F44336;"
             width="4"
             x="0"
             y="0"
             id="rect276" />
          <rect
             height="128"
             style="opacity:0.3;fill:#F44336;"
             width="4"
             x="124"
             y="0"
             id="rect278" />
          <rect
             height="120"
             style="opacity:0.3;fill:#F44336;"
             transform="matrix(-1.836970e-16 1 -1 -1.836970e-16 66 -62)"
             width="4"
             x="62"
             y="-58"
             id="rect280" />
          <rect
             height="120"
             style="opacity:0.3;fill:#F44336;"
             transform="matrix(-1.836970e-16 1 -1 -1.836970e-16 190 62)"
             width="4"
             x="62"
             y="66"
             id="rect282" />
        </g>
      </g>
    </g>
  </g>
  <g
     id="Layer_3"
     style="display:none;">
    <rect
       id="XMLID_46_"
       height="128"
       style="display:inline;fill:none;stroke:#616161;stroke-width:0.25;stroke-miterlimit:10;"
       transform="matrix(-1.346904e-10 -1 1 -1.346904e-10 8.631098e-09 128)"
       width="128"
       x="0" />
    <g
       id="XMLID_9_"
       style="display:inline;">
      <rect
         id="XMLID_45_"
         height="128"
         style="fill:none;stroke:#E0E0E0;stroke-width:0.25;stroke-miterlimit:10;"
         width="128"
         x="0" />
      <line
         id="XMLID_44_"
         style="fill:none;stroke:#E0E0E0;stroke-width:0.25;stroke-miterlimit:10;"
         x1="8"
         x2="8"
         y1="0"
         y2="128" />
      <line
         id="XMLID_43_"
         style="fill:none;stroke:#E0E0E0;stroke-width:0.25;stroke-miterlimit:10;"
         x1="16"
         x2="16"
         y1="0"
         y2="128" />
      <line
         id="XMLID_42_"
         style="fill:none;stroke:#E0E0E0;stroke-width:0.25;stroke-miterlimit:10;"
         x1="24"
         x2="24"
         y1="0"
         y2="128" />
      <line
         id="XMLID_41_"
         style="fill:none;stroke:#E0E0E0;stroke-width:0.25;stroke-miterlimit:10;"
         x1="32"
         x2="32"
         y1="0"
         y2="128" />
      <line
         id="XMLID_40_"
         style="fill:none;stroke:#E0E0E0;stroke-width:0.25;stroke-miterlimit:10;"
         x1="40"
         x2="40"
         y1="0"
         y2="128" />
      <line
         id="XMLID_39_"
         style="fill:none;stroke:#E0E0E0;stroke-width:0.25;stroke-miterlimit:10;"
         x1="48"
         x2="48"
         y1="0"
         y2="128" />
      <line
         id="XMLID_38_"
         style="fill:none;stroke:#E0E0E0;stroke-width:0.25;stroke-miterlimit:10;"
         x1="56"
         x2="56"
         y1="0"
         y2="128" />
      <line
         id="XMLID_37_"
         style="fill:none;stroke:#E0E0E0;stroke-width:0.25;stroke-miterlimit:10;"
         x1="63.99"
         x2="63.99"
         y1="0"
         y2="128" />
      <line
         id="XMLID_36_"
         style="fill:none;stroke:#E0E0E0;stroke-width:0.25;stroke-miterlimit:10;"
         x1="71.99"
         x2="71.99"
         y1="0"
         y2="128" />
      <line
         id="XMLID_35_"
         style="fill:none;stroke:#E0E0E0;stroke-width:0.25;stroke-miterlimit:10;"
         x1="79.99"
         x2="79.99"
         y1="0"
         y2="128" />
      <line
         id="XMLID_34_"
         style="fill:none;stroke:#E0E0E0;stroke-width:0.25;stroke-miterlimit:10;"
         x1="87.99"
         x2="87.99"
         y1="0"
         y2="128" />
      <line
         id="XMLID_33_"
         style="fill:none;stroke:#E0E0E0;stroke-width:0.25;stroke-miterlimit:10;"
         x1="95.99"
         x2="95.99"
         y1="0"
         y2="128" />
      <line
         id="XMLID_32_"
         style="fill:none;stroke:#E0E0E0;stroke-width:0.25;stroke-miterlimit:10;"
         x1="103.99"
         x2="103.99"
         y1="0"
         y2="128" />
      <line
         id="XMLID_47_"
         style="fill:none;stroke:#E0E0E0;stroke-width:0.25;stroke-miterlimit:10;"
         x1="111.99"
         x2="111.99"
         y1="0"
         y2="128" />
      <line
         id="XMLID_48_"
         style="fill:none;stroke:#E0E0E0;stroke-width:0.25;stroke-miterlimit:10;"
         x1="119.99"
         x2="119.99"
         y1="0"
         y2="128" />
      <line
         id="XMLID_49_"
         style="fill:none;stroke:#E0E0E0;stroke-width:0.25;stroke-miterlimit:10;"
         x1="128"
         x2="0"
         y1="120"
         y2="120" />
      <line
         id="XMLID_50_"
         style="fill:none;stroke:#E0E0E0;stroke-width:0.25;stroke-miterlimit:10;"
         x1="128"
         x2="0"
         y1="112"
         y2="112" />
      <line
         id="XMLID_51_"
         style="fill:none;stroke:#E0E0E0;stroke-width:0.25;stroke-miterlimit:10;"
         x1="128"
         x2="0"
         y1="104"
         y2="104" />
      <line
         id="XMLID_52_"
         style="fill:none;stroke:#E0E0E0;stroke-width:0.25;stroke-miterlimit:10;"
         x1="128"
         x2="0"
         y1="96"
         y2="96" />
      <line
         id="XMLID_53_"
         style="fill:none;stroke:#E0E0E0;stroke-width:0.25;stroke-miterlimit:10;"
         x1="128"
         x2="0"
         y1="88"
         y2="88" />
      <line
         id="XMLID_54_"
         style="fill:none;stroke:#E0E0E0;stroke-width:0.25;stroke-miterlimit:10;"
         x1="128"
         x2="0"
         y1="80"
         y2="80" />
      <line
         id="XMLID_55_"
         style="fill:none;stroke:#E0E0E0;stroke-width:0.25;stroke-miterlimit:10;"
         x1="128"
         x2="0"
         y1="72"
         y2="72" />
      <line
         id="XMLID_56_"
         style="fill:none;stroke:#E0E0E0;stroke-width:0.25;stroke-miterlimit:10;"
         x1="128"
         x2="0"
         y1="64.01"
         y2="64.01" />
      <line
         id="XMLID_57_"
         style="fill:none;stroke:#E0E0E0;stroke-width:0.25;stroke-miterlimit:10;"
         x1="128"
         x2="0"
         y1="56.01"
         y2="56.01" />
      <line
         id="XMLID_58_"
         style="fill:none;stroke:#E0E0E0;stroke-width:0.25;stroke-miterlimit:10;"
         x1="128"
         x2="0"
         y1="48.01"
         y2="48.01" />
      <line
         id="XMLID_60_"
         style="fill:none;stroke:#E0E0E0;stroke-width:0.25;stroke-miterlimit:10;"
         x1="128"
         x2="0"
         y1="40.01"
         y2="40.01" />
      <line
         id="XMLID_61_"
         style="fill:none;stroke:#E0E0E0;stroke-width:0.25;stroke-miterlimit:10;"
         x1="128"
         x2="0"
         y1="32.01"
         y2="32.01" />
      <line
         id="XMLID_62_"
         style="fill:none;stroke:#E0E0E0;stroke-width:0.25;stroke-miterlimit:10;"
         x1="128"
         x2="0"
         y1="24.01"
         y2="24.01" />
      <line
         id="XMLID_63_"
         style="fill:none;stroke:#E0E0E0;stroke-width:0.25;stroke-miterlimit:10;"
         x1="128"
         x2="0"
         y1="16.01"
         y2="16.01" />
      <line
         id="XMLID_64_"
         style="fill:none;stroke:#E0E0E0;stroke-width:0.25;stroke-miterlimit:10;"
         x1="128"
         x2="0"
         y1="8.01"
         y2="8.01" />
    </g>
    <use
       id="XMLID_31_"
       height="129"
       style="display:inline;overflow:visible;"
       transform="matrix(1 0 0 -1 64 64)"
       width="129"
       x="-64.5"
       xlink:href="#Grid"
       y="-64.5" />
  </g>
</svg>
