<?xml version="1.0" encoding="UTF-8" standalone="no"?>
<svg
   width="128"
   height="128"
   style="enable-background:new 0 0 128 128;"
   version="1.1"
   id="svg105"
   xml:space="preserve"
   xmlns:xlink="http://www.w3.org/1999/xlink"
   xmlns="http://www.w3.org/2000/svg"
   xmlns:svg="http://www.w3.org/2000/svg"><defs
     id="defs109"><rect
       id="SVGID_2_-6"
       height="128"
       style="opacity:0.2;"
       width="128"
       x="0"
       y="0" /></defs><g
     id="g103"><g
       id="g11"><linearGradient
         id="SVGID_1_"
         gradientUnits="userSpaceOnUse"
         x1="64"
         x2="64"
         y1="91.9343"
         y2="117.3575"><stop
           offset="0"
           style="stop-color:#FFE082"
           id="stop2" /><stop
           offset="0.3144"
           style="stop-color:#FFD965"
           id="stop4" /><stop
           offset="1"
           style="stop-color:#FFCA28"
           id="stop6" /></linearGradient><rect
         height="52.11"
         style="fill:url(#SVGID_1_);"
         width="120"
         x="4"
         y="71.89"
         id="rect9" /></g><g
       id="g23"><defs
         id="defs14"><rect
           id="SVGID_2_"
           height="52.11"
           width="120"
           x="4"
           y="71.77" /></defs><clipPath
         id="SVGID_3_"><use
           style="overflow:visible;"
           xlink:href="#SVGID_2_"
           id="use16" /></clipPath><g
         style="opacity:0.3;clip-path:url(#SVGID_3_);"
         clip-path="url(#SVGID_3_)"
         id="g21"><path
           d="M101.62,92.56c2.33,0.56,4.99,0.9,7.83,0.9c2.64,0,5.13-0.27,7.34-0.76 c0.91-0.2,1.82-0.29,2.74-0.31c1.1,0.61,2.75,1.04,4.47,1.39V73.99H4v18.27c0.89,0.04,1.78,0.07,2.7,0.11 c2.84,0.69,6.18,1.1,9.77,1.1c3.56,0,6.88-0.4,9.71-1.08c1.35-0.02,2.57-0.04,3.64-0.04c20.96,0-10.45,4.21-25.81,6.12v8.91 c9.8,0.07,16.07,0.86,11.32,2.94c-4.33,1.9-4.33,3.95,2.85,3.68c1.69-0.06,3.77-0.13,6.25-0.42c11.7-1.37,13.43-3.61,3.47-4.98 c-9.96-1.37-11.26-3.61-0.72-6.01c6.07-1.39,12.96-3.23,15.3-3.23c1.73,0,1,1-4.33,3.91c-5.31,2.9-4.15,3.97-0.18,3.97 c5.42,0,16.06-1.98,22.56-3.97c11.26-3.44,10.54-4.81-1.73-5.15c-10.92-0.31,2.84-3.6,13.94-3.6c1.38,0,2.72,0.05,3.97,0.16 c11.26,1.03,17.47,1.72,0.14,6.01c-17.33,4.29-16.03,7.73-6.35,8.93c9.68,1.2,9.39,2.58-2.02,4.29 c-4.8,0.72-8.67,1.14-11.07,1.14c-3.31,0-3.81-0.8-0.04-2.69c3.51-1.76,3.65-2.87,0.6-2.87c-2.6,0-7.5,0.81-14.61,2.7 c-10.3,2.75-8.34,3.44-3.5,3.44c2.42,0,5.57-0.17,8.26-0.34c0.5-0.03,0.91-0.05,1.24-0.05c4.95,0-8.91,3.47-7.29,4.76 c0.65,0.52,2.24,0.69,4.3,0.69c3.4,0,8.08-0.48,11.95-0.69c1.36-0.07,2.47-0.11,3.33-0.11c3.05,0,2.81,0.48-1.25,1.42 c-3.31,0.77-2.76,1.39,0.57,1.39c1.9,0,4.72-0.2,8.23-0.7c9.68-1.37,9.1-2.41-0.58-3.09c-9.68-0.69,14.3-2.92,24.41-4.64 c10.11-1.72,12.13-2.41-9.82-4.47c-18.4-1.73-4.02-4.06,11.83-4.06c3.05,0,6.17,0.09,9.11,0.28c18.2,1.2,12.27,3.61,8.09,4.98 c-3.69,1.21-6.6,3.76-0.12,3.76c0.87,0,1.92-0.05,3.15-0.15c1.96-0.16,3.53-0.24,4.75-0.24c4.19,0,4.13,0.91,1.22,2.35 c-3.11,1.54-2.74,2.87,0.78,2.9c0.67,0.01,1.34,0,2-0.01V98.24c-0.17,0.04-0.32,0.08-0.5,0.12c0,0-1.73,0.18-4.78,0.18 c-4.2,0-10.9-0.35-19.05-1.99C96.17,95.85,98.42,94.27,101.62,92.56z"
           style="opacity:0.3;fill:#D7CCC8;"
           id="path19" /></g></g><linearGradient
       id="SVGID_4_"
       gradientUnits="userSpaceOnUse"
       x1="64"
       x2="64"
       y1="63.9222"
       y2="93.1871"><stop
         offset="0"
         style="stop-color:#00ACC1"
         id="stop25" /><stop
         offset="0.075"
         style="stop-color:#13B1C4"
         id="stop27" /><stop
         offset="0.4329"
         style="stop-color:#68CAD0"
         id="stop29" /><stop
         offset="0.6855"
         style="stop-color:#9DD9D8"
         id="stop31" /><stop
         offset="0.808"
         style="stop-color:#B2DFDB"
         id="stop33" /><stop
         offset="1"
         style="stop-color:#B2DFDB"
         id="stop35" /></linearGradient><path
       d="M27.32,93.03c4.06-2.81,8.37-3.52,12.6-2.46c2.75,0.68,5.66,1.05,8.68,1.05 c4.82,0,9.38-0.94,13.44-2.6c4.94-2.03,10.03-1.17,14.85,1.98c7.43,4.86,17.91,7.89,29.52,7.89c6.31,0,12.27-0.91,17.6-2.51V71.93 c0-4.42-3.58-8-8-8H12c-4.42,0-8,3.58-8,8V98.7c1.25,0.13,2.51,0.2,3.8,0.2C15.22,98.9,22.02,96.69,27.32,93.03z"
       style="fill:url(#SVGID_4_);"
       id="path38" /><path
       d="M106.4,94.9c-11.61,0-22.09-3.03-29.52-7.89c-4.81-3.15-9.9-4.01-14.85-1.98 c-4.05,1.66-8.61,2.6-13.44,2.6c-3.02,0-5.93-0.37-8.68-1.05c-4.24-1.05-8.55-0.35-12.6,2.46C22.02,92.69,15.22,94.9,7.8,94.9 c-1.29,0-2.55-0.07-3.8-0.2v7.28c1.25,0.13,2.51,0.2,3.8,0.2c7.42,0,14.22-2.21,19.52-5.87c4.06-2.81,8.37-3.52,12.6-2.46 c2.75,0.68,5.66,1.05,8.68,1.05c4.82,0,9.38-0.94,13.44-2.6c4.94-2.03,10.03-1.17,14.85,1.98c7.43,4.86,17.91,7.89,29.52,7.89 c6.31,0,12.27-0.91,17.6-2.51v-7.28C118.67,93.99,112.71,94.9,106.4,94.9z"
       style="opacity:0.8;fill:#FFFFFF;"
       id="path40" /><g
       style="opacity:0.2;"
       id="g44"><path
         d="M116,66.92c2.7,0,4.94,2.2,4.99,4.91l0.01,0.33v1.83v19.79v2.62v1.85v21.36v1.27H7v-13.51V98.7 v-0.24v-6.2V73.99v-1.78l0.01-0.38c0.05-2.7,2.29-4.91,4.99-4.91H116 M116,63.92H12c-4.37,0-7.91,3.5-7.99,7.85H4v0.16v2.06v18.27 v6.2v0.24v8.67v16.51h120v-4.27V98.24v-1.85v-2.62V73.99v-2.06v-0.16h-0.01C123.91,67.42,120.37,63.92,116,63.92L116,63.92z"
         style="fill:#424242;"
         id="path42" /></g><g
       id="g57"><linearGradient
         id="SVGID_5_"
         gradientUnits="userSpaceOnUse"
         x1="28.3817"
         x2="28.3817"
         y1="95.794"
         y2="113.0819"><stop
           offset="0"
           style="stop-color:#FF9E80"
           id="stop46" /><stop
           offset="1"
           style="stop-color:#FF3D00"
           id="stop48" /></linearGradient><path
         d="M16.72,106.56l7.14-2.12c0.43-0.13,0.72-0.48,0.72-0.88l0.07-6.69 c0.01-0.9,1.3-1.27,1.91-0.55l4.48,5.38c0.27,0.32,0.74,0.46,1.17,0.34l7.18-2.01c0.97-0.27,1.77,0.71,1.18,1.44l-4.37,5.45 c-0.26,0.33-0.26,0.76,0,1.09l4.37,5.45c0.59,0.73-0.21,1.71-1.18,1.44l-7.18-2.01c-0.43-0.12-0.9,0.01-1.17,0.34l-4.48,5.38 c-0.6,0.72-1.9,0.35-1.91-0.55l-0.07-6.69c0-0.4-0.29-0.75-0.72-0.88l-7.14-2.12C15.76,108.06,15.76,106.85,16.72,106.56z"
         style="fill:url(#SVGID_5_);"
         id="path51" /><g
         style="opacity:0.2;"
         id="g55"><path
           d="M27.6,102.25l1.14,1.36c0.77,0.93,1.92,1.46,3.15,1.46c0.38,0,0.76-0.05,1.13-0.15l1.2-0.34 l-0.36,0.45c-1.14,1.43-1.14,3.42,0,4.84l0.36,0.45l-1.2-0.34c-0.37-0.1-0.74-0.15-1.13-0.15c-1.23,0-2.38,0.53-3.15,1.46 l-1.14,1.36l-0.01-1.34c-0.02-1.72-1.17-3.22-2.86-3.73l-0.47-0.14l0.47-0.14c1.7-0.5,2.85-2,2.86-3.73L27.6,102.25 M25.72,95.94 c-0.54,0-1.06,0.36-1.07,0.93l-0.07,6.69c0,0.4-0.29,0.75-0.72,0.88l-7.14,2.12c-0.96,0.29-0.96,1.49,0,1.78l7.14,2.12 c0.43,0.13,0.72,0.48,0.72,0.88l0.07,6.69c0.01,0.57,0.53,0.93,1.07,0.93c0.31,0,0.62-0.12,0.84-0.38l4.48-5.38 c0.2-0.24,0.52-0.38,0.85-0.38c0.11,0,0.21,0.01,0.32,0.04l7.18,2.01c0.11,0.03,0.22,0.05,0.33,0.05c0.8,0,1.37-0.84,0.85-1.49 L36.19,108c-0.26-0.33-0.26-0.76,0-1.09l4.37-5.45c0.52-0.65-0.04-1.49-0.85-1.49c-0.11,0-0.22,0.01-0.33,0.05l-7.18,2.01 c-0.1,0.03-0.21,0.04-0.32,0.04c-0.33,0-0.65-0.14-0.85-0.38l-4.48-5.38C26.34,96.05,26.02,95.94,25.72,95.94L25.72,95.94z"
           style="fill:#424242;"
           id="path53" /></g></g><g
       id="g101"><linearGradient
         id="SVGID_6_"
         gradientUnits="userSpaceOnUse"
         x1="70.2584"
         x2="70.2584"
         y1="94.6021"
         y2="47.9505"><stop
           offset="0"
           style="stop-color:#EF5350"
           id="stop59" /><stop
           offset="1"
           style="stop-color:#E53935"
           id="stop61" /></linearGradient><path
         d="M60.8,107.9L60.8,107.9c-1.31-0.23-2.19-1.48-1.95-2.79L76.93,5.99 c0.23-1.31,1.48-2.18,2.79-1.95l0,0c1.31,0.23,2.19,1.48,1.95,2.79l-18.08,99.13C63.36,107.26,62.11,108.14,60.8,107.9z"
         style="fill:url(#SVGID_6_);"
         id="path64" /><g
         id="g99"><radialGradient
           id="SVGID_7_"
           cx="78.8333"
           cy="7.2556"
           gradientTransform="matrix(1 0 0 1.0004 0 -0.0277)"
           gradientUnits="userSpaceOnUse"
           r="47.9737"><stop
             offset="0"
             style="stop-color:#EF5350"
             id="stop66" /><stop
             offset="1"
             style="stop-color:#D32F2F"
             id="stop68" /></radialGradient><path
           d="M120,52.85l-0.02-0.6l-0.01,0c0.46-20.02-16.6-38.64-40.63-43.37 c-0.04-0.01-0.08-0.02-0.11-0.02c-0.03-0.01-0.06-0.01-0.09-0.02c0.16,0.03,0.32,0.04,0.48,0.07c-0.14-0.02-0.28-0.04-0.42-0.07 c0.04,0.01,0.08,0.01,0.12,0.01c-0.09-0.02-0.18-0.02-0.26-0.04c-0.04-0.01-0.07-0.02-0.11-0.03c-0.04-0.01-0.08-0.01-0.12-0.01 c-0.09-0.02-0.18-0.04-0.28-0.06c0.05,0.01,0.1,0.03,0.15,0.04c-0.18-0.03-0.37-0.08-0.55-0.11c0.19,0.03,0.37,0.08,0.55,0.11 c-0.01,0-0.02,0-0.03,0c-24.3-3.88-46.83,7.8-53.28,26.84l-0.01,0l-0.23,0.56c-0.5,1.23,2.15,3.46,5.93,4.99 c3.24,1.31,6.25,1.67,7.36,0.98c-0.19,1.7,3.57,4.16,8.63,5.6c5.1,1.45,9.62,1.32,10.32-0.26c0.9,2.41,6.5,5.09,13.59,6.34 c7.08,1.25,13.27,0.64,14.94-1.31c0.12,1.72,4.32,3.38,9.61,3.76c5.18,0.37,9.5-0.62,10.01-2.24c0.9,0.98,3.78,1.63,7.18,1.51 C116.79,55.37,120.05,54.18,120,52.85z"
           style="fill:url(#SVGID_7_);"
           id="path71" /><g
           style="opacity:0.2;"
           id="g75"><path
             d="M69.38,11.01c2.92,0,5.89,0.24,8.81,0.7l0.05,0.01l0.05,0.01l0.06,0.01l0.05,0l0,0 c0.01,0,0.01,0,0.02,0c0.01,0,0.03,0.01,0.04,0.01l0.04,0.01l0,0l-0.07-0.02l0.08,0.02l0.04,0.01l0.09,0.02l0.04,0.01l0.08,0.02 c10.95,2.16,20.86,7.5,27.88,15.05c6.76,7.27,10.42,16.09,10.33,24.9c-0.79,0.3-2.28,0.67-4.36,0.74 c-0.24,0.01-0.47,0.01-0.71,0.01c-2.36,0-3.83-0.42-4.25-0.65l-3.41-3.71l-1.39,4.41c-0.67,0.31-2.41,0.76-5.17,0.76 c-0.63,0-1.28-0.02-1.93-0.07c-3.55-0.26-5.99-1.11-6.88-1.66l-0.47-6.61l-4.73,5.52c-0.32,0.26-1.99,0.94-5.67,0.94 c-2,0-4.25-0.21-6.49-0.6c-6.78-1.19-10.75-3.53-11.31-4.47l-2.56-6.87l-2.7,6.1c-0.27,0.06-0.72,0.12-1.41,0.12 c-1.6,0-3.59-0.32-5.63-0.89c-3.43-0.97-5.66-2.31-6.4-3.03l0.62-5.52l-5.07,3.17c-0.06,0.01-0.16,0.01-0.3,0.01 c-0.88,0-2.53-0.29-4.55-1.11c-1.93-0.78-3.2-1.63-3.84-2.19C33.68,21.11,50.1,11.01,69.38,11.01 M69.38,8.01 c-20.56,0-38.38,11-43.99,27.58l-0.01,0l-0.23,0.56c-0.5,1.23,2.15,3.46,5.93,4.99c2.16,0.87,4.21,1.32,5.67,1.32 c0.73,0,1.32-0.11,1.69-0.35c-0.19,1.7,3.57,4.16,8.63,5.6c2.38,0.68,4.64,1.01,6.44,1.01c2.05,0,3.5-0.43,3.87-1.27 c0.9,2.41,6.5,5.09,13.59,6.34c2.5,0.44,4.89,0.65,7.01,0.65c3.88,0,6.85-0.7,7.93-1.96c0.12,1.72,4.32,3.38,9.61,3.76 c0.74,0.05,1.46,0.08,2.15,0.08c4.18,0,7.42-0.93,7.86-2.32c0.83,0.9,3.33,1.52,6.36,1.52c0.27,0,0.54,0,0.81-0.01 c4.08-0.15,7.34-1.34,7.28-2.66l-0.02-0.6l-0.01,0c0.46-20.02-16.6-38.64-40.63-43.37c-0.04-0.01-0.08-0.02-0.11-0.02 c-0.03-0.01-0.06-0.01-0.09-0.02c0.16,0.03,0.32,0.04,0.48,0.07c-0.14-0.02-0.28-0.04-0.42-0.07c0.04,0.01,0.08,0.01,0.12,0.01 c-0.09-0.02-0.18-0.02-0.26-0.04c-0.04-0.01-0.07-0.02-0.11-0.03c-0.04-0.01-0.08-0.01-0.12-0.01 c-0.09-0.02-0.18-0.04-0.28-0.06c0.05,0.01,0.1,0.03,0.15,0.04c-0.18-0.03-0.37-0.08-0.55-0.11c0.19,0.03,0.37,0.08,0.55,0.11 c-0.01,0-0.02,0-0.03,0C75.53,8.26,72.42,8.01,69.38,8.01L69.38,8.01z"
             style="fill:#424242;"
             id="path73" /></g><linearGradient
           id="SVGID_8_"
           gradientUnits="userSpaceOnUse"
           x1="72.242"
           x2="72.242"
           y1="29.0739"
           y2="64.7594"><stop
             offset="0"
             style="stop-color:#F5F5F5"
             id="stop77" /><stop
             offset="1"
             style="stop-color:#BDBDBD"
             id="stop79" /></linearGradient><path
           d="M105.64,52.96c2.85-21.2-8.85-39.36-26.63-42.92c-0.03-0.01-0.07-0.02-0.1-0.02 c0.06,0.01,0.13,0.01,0.19,0.02c-0.09-0.02-0.18-0.02-0.26-0.04c-0.04-0.01-0.07-0.02-0.11-0.03c-0.04-0.01-0.08-0.01-0.12-0.01 c-0.09-0.02-0.18-0.04-0.28-0.06c0.07,0.01,0.13,0.03,0.19,0.05c-0.03,0-0.05,0-0.08-0.01C60.51,7.19,43.28,20.26,38.7,41.17 l-0.23,0.77c-0.49,1.7,3.37,4.29,8.61,5.78c5.1,1.45,9.62,1.32,10.32-0.26c0.9,2.41,6.5,5.09,13.59,6.34 c7.08,1.25,13.27,0.64,14.94-1.31c0.12,1.72,4.32,3.38,9.61,3.76c5.44,0.39,9.95-0.72,10.07-2.49L105.64,52.96z"
           style="fill:url(#SVGID_8_);"
           id="path82" /><g
           style="opacity:0.2;"
           id="g86"><path
             d="M78.3,12.34l0.07,0.01l0.04,0.01l0.01,0l0,0l-0.05-0.01l0.07,0.02l0.03,0.01l0.04,0.01l0.04,0.01 c16.42,3.29,27.39,20.3,24.71,40.24l-0.01,0.1l-0.01,0.1l-0.01,0.23c-0.91,0.48-3.6,1.07-7.52,0.79 c-0.93-0.07-1.84-0.18-2.7-0.33c-2.68-0.47-4.2-1.21-4.71-1.6l-4.57-2.75l0.37,1.75c-0.63,0.7-5.18,1.83-12.69,0.51 c-7.51-1.32-11.4-3.94-11.75-4.81l1.39-1.9l-5.69,1.4c-0.61,0.2-2.29,0.37-4.97-0.1c-0.87-0.15-1.76-0.36-2.65-0.61 c-3.79-1.07-6.1-2.55-6.8-3.31L41,41.88l0.03-0.09l0.02-0.1c4.31-19.67,20.46-31.91,37.03-29.37l0.03,0.01l0.03,0l0.11,0.01l0,0 C78.28,12.34,78.29,12.34,78.3,12.34 M79.1,10.04c-0.09-0.02-0.18-0.02-0.26-0.04c-0.04-0.01-0.07-0.02-0.11-0.03 c-0.04-0.01-0.08-0.01-0.12-0.01c-0.09-0.02-0.18-0.04-0.28-0.06c0.07,0.01,0.13,0.03,0.19,0.05c-0.03,0-0.05,0-0.08-0.01 C60.51,7.19,43.28,20.26,38.7,41.17l-0.23,0.77c-0.49,1.7,3.37,4.29,8.61,5.78c0.99,0.28,1.97,0.5,2.89,0.67 c3.83,0.67,6.87,0.34,7.43-0.93c0.9,2.41,6.5,5.09,13.59,6.34c7.08,1.25,13.27,0.64,14.94-1.31c0.1,1.38,2.84,2.73,6.66,3.4 c0.93,0.16,1.91,0.29,2.94,0.36c5.44,0.39,9.95-0.72,10.07-2.49l0.04-0.8c2.85-21.2-8.85-39.36-26.63-42.92 c-0.03-0.01-0.07-0.02-0.1-0.02C78.98,10.02,79.04,10.02,79.1,10.04L79.1,10.04z"
             style="fill:#424242;"
             id="path84" /></g><radialGradient
           id="SVGID_9_"
           cx="77.6667"
           cy="8.2556"
           gradientTransform="matrix(1 0 0 1.0004 0 -0.0277)"
           gradientUnits="userSpaceOnUse"
           r="45.1494"><stop
             offset="0"
             style="stop-color:#EF5350"
             id="stop88" /><stop
             offset="1"
             style="stop-color:#D32F2F"
             id="stop90" /></radialGradient><path
           d="M86.55,50.46c3.61-21.75,0.27-40.29-7.61-41.68C71.05,7.4,61.56,23.68,57.51,45.35l-0.02,0 l-0.21,1.18c-0.46,2.6,5.67,5.86,13.7,7.28c8.03,1.41,14.9,0.45,15.36-2.16l0.05-0.31C86.4,51.33,86.55,50.46,86.55,50.46z"
           style="fill:url(#SVGID_9_);"
           id="path93" /><g
           style="opacity:0.2;"
           id="g97"><path
             d="M77.99,11.7c0.15,0,0.29,0.01,0.43,0.04c4.67,0.82,8.9,15.77,5.18,38.23c0,0-0.07,0.42-0.11,0.67 c-0.6,0.3-2.27,0.82-5.48,0.82c-2,0-4.25-0.21-6.5-0.61c-6.35-1.12-10.24-3.23-11.17-4.27l0.13-0.67 c1.82-9.74,4.84-18.69,8.49-25.21C72.65,14.06,76.05,11.7,77.99,11.7 M77.99,8.7c-7.68,0-16.59,15.84-20.48,36.65l-0.02,0 l-0.21,1.18c-0.46,2.6,5.67,5.86,13.7,7.28c2.51,0.44,4.9,0.65,7.02,0.65c4.67,0,8.03-1.02,8.34-2.81l0.05-0.31 c0,0,0.15-0.87,0.15-0.87c3.61-21.75,0.27-40.29-7.61-41.68C78.62,8.73,78.3,8.7,77.99,8.7L77.99,8.7z"
             style="fill:#424242;"
             id="path95" /></g></g></g></g><g
     id="g630"
     transform="matrix(0.38772942,0,0,0.38772942,69.764669,70.857999)"><symbol
       id="Grid"
       viewBox="-64.5 -64.5 129 129"><g
         id="XMLID_102_"><rect
           id="XMLID_110_"
           height="128"
           style="fill:none;stroke:#4285f4;stroke-miterlimit:10"
           width="128"
           x="-64"
           y="-64" /><path
           id="XMLID_109_"
           d="M 36.95,37.82 C 27.32,46.32 14.2,51 0,51 -14.27,51 -27.39,46.38 -36.96,37.99 -47.45,28.79 -53,15.65 -53,0 c 0,-15.58 5.55,-28.69 16.04,-37.92 C -27.36,-46.35 -14.24,-51 0,-51 c 14.17,0 27.29,4.71 36.95,13.25 C 47.45,-28.45 53,-15.4 53,0 53,15.47 47.45,28.55 36.95,37.82 Z"
           style="fill:none;stroke:#4285f4;stroke-miterlimit:10" /><path
           id="XMLID_108_"
           d="m 0,55 v 0 0 c -29.59,0 -57,-19.01 -57,-55 0,-35.8 27.41,-55 57,-55 v 0 0 c 29.59,0 57,19.69 57,55 0,35.51 -27.41,55 -57,55 z"
           style="fill:none;stroke:#4285f4;stroke-miterlimit:10" /><path
           id="XMLID_107_"
           d="m 0,-43 c -12.29,0 -23.54,3.94 -31.68,11.09 C -40.39,-24.25 -45,-13.21 -45,0 -45,29.7 -22.4,43 0,43 21.67,43 45,29.54 45,0 45,-29.54 21.67,-43 0,-43 Z"
           style="fill:none;stroke:#4285f4;stroke-miterlimit:10" /><line
           id="XMLID_106_"
           style="fill:none;stroke:#4285f4;stroke-miterlimit:10"
           x1="-0.0099999998"
           x2="-0.0099999998"
           y1="51"
           y2="-51" /><line
           id="XMLID_105_"
           style="fill:none;stroke:#4285f4;stroke-miterlimit:10"
           x1="-16"
           x2="-16"
           y1="48.950001"
           y2="-48.93" /><line
           id="XMLID_104_"
           style="fill:none;stroke:#4285f4;stroke-miterlimit:10"
           x1="15.99"
           x2="15.99"
           y1="48.91"
           y2="-48.93" /><line
           id="XMLID_103_"
           style="fill:none;stroke:#4285f4;stroke-miterlimit:10"
           x1="53"
           x2="-53"
           y1="0.079999998"
           y2="0.079999998" /></g></symbol><g
       id="Layer_1"><g
         id="g138"><linearGradient
           id="SVGID_1_-3"
           gradientUnits="userSpaceOnUse"
           x1="63.991501"
           x2="63.991501"
           y1="20.7015"
           y2="106.7301"><stop
             offset="0.5"
             style="stop-color:#FEE133"
             id="stop121" /><stop
             offset="0.6118"
             style="stop-color:#FEDE32"
             id="stop123" /><stop
             offset="0.7076"
             style="stop-color:#FCD32F"
             id="stop125" /><stop
             offset="0.7975"
             style="stop-color:#FAC12B"
             id="stop127" /><stop
             offset="0.8834"
             style="stop-color:#F7A924"
             id="stop129" /><stop
             offset="0.9"
             style="stop-color:#F6A323"
             id="stop131" /></linearGradient><path
           d="M 63.99,118.65 C 36.68,118.65 7.28,101.55 7.28,64 7.28,26.45 36.68,9.35 63.99,9.35 c 15.14,0 29.15,5.01 39.46,14.11 11.29,9.96 17.25,23.98 17.25,40.54 0,16.49 -5.96,30.48 -17.25,40.47 -10.33,9.14 -24.35,14.18 -39.46,14.18 z"
           style="fill:url(#SVGID_1_-3)"
           id="path134" /><path
           d="m 63.99,11.35 v 0 c 14.65,0 28.19,4.83 38.14,13.61 10.84,9.57 16.57,23.07 16.57,39.04 0,15.9 -5.73,29.37 -16.58,38.97 -9.97,8.82 -23.51,13.68 -38.14,13.68 -14.69,0 -28.24,-4.8 -38.15,-13.5 C 15.01,93.62 9.28,80.08 9.28,64 9.28,47.84 15.01,34.28 25.84,24.78 35.72,16.12 49.27,11.35 63.99,11.35 m 0,-4 v 0 0 0 C 33.51,7.35 5.28,26.93 5.28,64 c 0,36.87 28.23,56.65 58.71,56.65 v 0 0 0 C 94.47,120.65 122.7,100.37 122.7,64 122.7,27.43 94.47,7.35 63.99,7.35 Z"
           style="fill:#eb8f00"
           id="path136" /></g><g
         id="g146"><path
           d="m 124,45.42 c 0,0 -4.26,0.09 -4.26,3.5 0,8.42 0.09,26.49 -21.96,26.49 -17.66,0 -26.09,-9.12 -27.51,-19.19 -0.59,-4.19 -2.04,-8.76 -6.27,-8.76 -4.23,0 -5.69,4.57 -6.27,8.76 C 56.31,66.29 47.88,75.41 30.22,75.41 8.17,75.41 8.26,57.34 8.26,48.92 8.26,45.51 4,45.42 4,45.42 v -8.34 c 0,0 8.18,-1.26 20.66,-1.26 12.48,0 17.45,0 27.38,0.99 5.86,0.59 11.96,0.66 11.96,0.66 0,0 6.1,-0.06 11.97,-0.65 9.93,-0.99 14.9,-0.99 27.38,-0.99 12.48,0 20.66,1.26 20.66,1.26 v 8.33 z"
           id="path140" /><path
           d="m 21.12,51.95 c -0.1,1.6 -0.74,3.08 -2.31,3.37 -0.18,0.03 -0.36,0.05 -0.54,0.05 -1.36,0 -2.58,-0.97 -2.84,-2.36 -0.56,-2.98 0.09,-5.77 1.82,-7.86 1.62,-1.96 4.02,-3.08 6.58,-3.08 1.6,0 3.01,0.99 3.01,2.58 0,1.88 -1.5,2.67 -3.01,3.2 -1.41,0.51 -2.59,2.16 -2.71,4.1 z"
           style="fill:#ff5210;fill-opacity:1"
           id="path142" /><path
           d="m 84.7,51.95 c -0.1,1.6 -0.74,3.08 -2.31,3.37 -0.18,0.03 -0.36,0.05 -0.54,0.05 -1.36,0 -2.58,-0.97 -2.84,-2.36 -0.56,-2.98 0.09,-5.77 1.82,-7.86 1.62,-1.96 4.02,-3.08 6.58,-3.08 1.6,0 3.01,0.99 3.01,2.58 0,1.88 -1.5,2.67 -3.01,3.2 -1.4,0.51 -2.59,2.16 -2.71,4.1 z"
           style="fill:#ff5210;fill-opacity:1"
           id="path144" /></g><path
         d="m 64,93.81 c -11.51,0 -19.73,-5.97 -22.2,-9.74 -0.95,-1.45 -1.14,-3.03 -0.5,-4.22 0.48,-0.9 1.36,-1.41 2.42,-1.41 0.35,0 0.72,0.06 1.09,0.18 5.8,1.82 12.45,2.78 19.24,2.78 6.74,0 13.37,-0.96 19.16,-2.78 0.37,-0.12 0.74,-0.18 1.09,-0.18 1.05,0 1.93,0.51 2.41,1.41 0.64,1.19 0.45,2.76 -0.5,4.22 -2.48,3.76 -10.7,9.74 -22.21,9.74 z"
         style="fill:#242424"
         id="path148" /></g><g
       id="Layer_2"
       style="display:none"><g
         style="display:inline"
         id="g397"><g
           style="opacity:0.6"
           id="g179"><circle
             cx="64"
             cy="64"
             r="28"
             style="opacity:0.61;fill:none;stroke:#000000;stroke-width:0.2625;stroke-miterlimit:10"
             id="circle151" /><line
             style="opacity:0.61;fill:none;stroke:#000000;stroke-width:0.25;stroke-miterlimit:10"
             x1="84"
             x2="84"
             y1="0"
             y2="128"
             id="line153" /><line
             style="opacity:0.61;fill:none;stroke:#000000;stroke-width:0.25;stroke-miterlimit:10"
             x1="44"
             x2="44"
             y1="0"
             y2="128"
             id="line155" /><line
             style="opacity:0.61;fill:none;stroke:#000000;stroke-width:0.25;stroke-miterlimit:10"
             x1="64"
             x2="64"
             y1="0"
             y2="128"
             id="line157" /><line
             style="opacity:0.61;fill:none;stroke:#000000;stroke-width:0.25;stroke-miterlimit:10"
             x1="128"
             x2="0"
             y1="64"
             y2="64"
             id="line159" /><line
             style="opacity:0.61;fill:none;stroke:#000000;stroke-width:0.25;stroke-miterlimit:10"
             x1="128"
             x2="0"
             y1="44"
             y2="44"
             id="line161" /><line
             style="opacity:0.61;fill:none;stroke:#000000;stroke-width:0.25;stroke-miterlimit:10"
             x1="128"
             x2="0"
             y1="83.75"
             y2="83.75"
             id="line163" /><line
             style="opacity:0.61;fill:none;stroke:#000000;stroke-width:0.25;stroke-miterlimit:10"
             x1="128"
             x2="0"
             y1="128"
             y2="0"
             id="line165" /><line
             style="opacity:0.61;fill:none;stroke:#000000;stroke-width:0.25;stroke-miterlimit:10"
             x1="0"
             x2="128"
             y1="128"
             y2="0"
             id="line167" /><g
             style="opacity:0.61"
             id="g171"><path
               d="m 64,4.26 c 32.94,0 59.74,26.8 59.74,59.74 0,32.94 -26.8,59.74 -59.74,59.74 C 31.06,123.74 4.26,96.94 4.26,64 4.26,31.06 31.06,4.26 64,4.26 M 64,4 C 30.86,4 4,30.86 4,64 4,97.14 30.86,124 64,124 97.14,124 124,97.14 124,64 124,30.86 97.14,4 64,4 Z"
               id="path169" /></g><path
             d="M 107.97,115.97 H 20.03 c -4.42,0 -8.03,-3.61 -8.03,-8.03 V 20.03 C 12,15.61 15.61,12 20.03,12 h 87.94 c 4.42,0 8.03,3.61 8.03,8.03 v 87.91 c 0,4.42 -3.61,8.03 -8.03,8.03 z"
             style="opacity:0.61;fill:none;stroke:#000000;stroke-width:0.2578;stroke-miterlimit:10"
             id="path173" /><path
             d="M 100,124 H 28 c -4.4,0 -8,-3.6 -8,-8 V 12 c 0,-4.4 3.6,-8 8,-8 h 72 c 4.4,0 8,3.6 8,8 v 104 c 0,4.4 -3.6,8 -8,8 z"
             style="opacity:0.61;fill:none;stroke:#000000;stroke-width:0.2628;stroke-miterlimit:10"
             id="path175" /><path
             d="M 113.77,108 H 14.23 C 8.6,108 4,103.4 4,97.77 V 30.28 C 4,24.65 8.6,20.05 14.23,20.05 h 99.54 c 5.63,0 10.23,4.6 10.23,10.23 v 67.48 c 0,5.64 -4.6,10.24 -10.23,10.24 z"
             style="opacity:0.61;fill:none;stroke:#000000;stroke-width:0.2627;stroke-miterlimit:10"
             id="path177" /></g><g
           id="g395"><g
             style="opacity:0.2"
             id="g383"><defs
               id="defs182"><rect
                 id="rect483"
                 height="128"
                 style="opacity:0.2"
                 width="128"
                 x="0"
                 y="0" /></defs><clipPath
               id="SVGID_3_-7"><use
                 style="overflow:visible"
                 xlink:href="#SVGID_2_-6"
                 id="use184" /></clipPath><g
               clip-path="url(#SVGID_3_)"
               id="g381"><g
                 id="g281"><line
                   style="fill:none;stroke:#000000;stroke-width:0.25;stroke-miterlimit:10"
                   x1="-28"
                   x2="-28"
                   y1="160"
                   y2="-32"
                   id="line187" /><line
                   style="fill:none;stroke:#000000;stroke-width:0.25;stroke-miterlimit:10"
                   x1="-24"
                   x2="-24"
                   y1="160"
                   y2="-32"
                   id="line189" /><line
                   style="fill:none;stroke:#000000;stroke-width:0.25;stroke-miterlimit:10"
                   x1="-20"
                   x2="-20"
                   y1="160"
                   y2="-32"
                   id="line191" /><line
                   style="fill:none;stroke:#000000;stroke-width:0.25;stroke-miterlimit:10"
                   x1="-16"
                   x2="-16"
                   y1="160"
                   y2="-32"
                   id="line193" /><line
                   style="fill:none;stroke:#000000;stroke-width:0.25;stroke-miterlimit:10"
                   x1="-12"
                   x2="-12"
                   y1="160"
                   y2="-32"
                   id="line195" /><line
                   style="fill:none;stroke:#000000;stroke-width:0.25;stroke-miterlimit:10"
                   x1="-8"
                   x2="-8"
                   y1="160"
                   y2="-32"
                   id="line197" /><line
                   style="fill:none;stroke:#000000;stroke-width:0.25;stroke-miterlimit:10"
                   x1="-4"
                   x2="-4"
                   y1="160"
                   y2="-32"
                   id="line199" /><line
                   style="fill:none;stroke:#000000;stroke-width:0.25;stroke-miterlimit:10"
                   x1="0"
                   x2="0"
                   y1="160"
                   y2="-32"
                   id="line201" /><line
                   style="fill:none;stroke:#000000;stroke-width:0.25;stroke-miterlimit:10"
                   x1="4"
                   x2="4"
                   y1="160"
                   y2="-32"
                   id="line203" /><line
                   style="fill:none;stroke:#000000;stroke-width:0.25;stroke-miterlimit:10"
                   x1="8"
                   x2="8"
                   y1="160"
                   y2="-32"
                   id="line205" /><line
                   style="fill:none;stroke:#000000;stroke-width:0.25;stroke-miterlimit:10"
                   x1="12"
                   x2="12"
                   y1="160"
                   y2="-32"
                   id="line207" /><line
                   style="fill:none;stroke:#000000;stroke-width:0.25;stroke-miterlimit:10"
                   x1="16"
                   x2="16"
                   y1="160"
                   y2="-32"
                   id="line209" /><line
                   style="fill:none;stroke:#000000;stroke-width:0.25;stroke-miterlimit:10"
                   x1="20"
                   x2="20"
                   y1="160"
                   y2="-32"
                   id="line211" /><line
                   style="fill:none;stroke:#000000;stroke-width:0.25;stroke-miterlimit:10"
                   x1="24"
                   x2="24"
                   y1="160"
                   y2="-32"
                   id="line213" /><line
                   style="fill:none;stroke:#000000;stroke-width:0.25;stroke-miterlimit:10"
                   x1="28"
                   x2="28"
                   y1="160"
                   y2="-32"
                   id="line215" /><line
                   style="fill:none;stroke:#000000;stroke-width:0.25;stroke-miterlimit:10"
                   x1="32"
                   x2="32"
                   y1="160"
                   y2="-32"
                   id="line217" /><line
                   style="fill:none;stroke:#000000;stroke-width:0.25;stroke-miterlimit:10"
                   x1="36"
                   x2="36"
                   y1="160"
                   y2="-32"
                   id="line219" /><line
                   style="fill:none;stroke:#000000;stroke-width:0.25;stroke-miterlimit:10"
                   x1="40"
                   x2="40"
                   y1="160"
                   y2="-32"
                   id="line221" /><line
                   style="fill:none;stroke:#000000;stroke-width:0.25;stroke-miterlimit:10"
                   x1="44"
                   x2="44"
                   y1="160"
                   y2="-32"
                   id="line223" /><line
                   style="fill:none;stroke:#000000;stroke-width:0.25;stroke-miterlimit:10"
                   x1="48"
                   x2="48"
                   y1="160"
                   y2="-32"
                   id="line225" /><line
                   style="fill:none;stroke:#000000;stroke-width:0.25;stroke-miterlimit:10"
                   x1="52"
                   x2="52"
                   y1="160"
                   y2="-32"
                   id="line227" /><line
                   style="fill:none;stroke:#000000;stroke-width:0.25;stroke-miterlimit:10"
                   x1="56"
                   x2="56"
                   y1="160"
                   y2="-32"
                   id="line229" /><line
                   style="fill:none;stroke:#000000;stroke-width:0.25;stroke-miterlimit:10"
                   x1="60"
                   x2="60"
                   y1="160"
                   y2="-32"
                   id="line231" /><line
                   style="fill:none;stroke:#000000;stroke-width:0.25;stroke-miterlimit:10"
                   x1="64"
                   x2="64"
                   y1="160"
                   y2="-32"
                   id="line233" /><line
                   style="fill:none;stroke:#000000;stroke-width:0.25;stroke-miterlimit:10"
                   x1="68"
                   x2="68"
                   y1="160"
                   y2="-32"
                   id="line235" /><line
                   style="fill:none;stroke:#000000;stroke-width:0.25;stroke-miterlimit:10"
                   x1="72"
                   x2="72"
                   y1="160"
                   y2="-32"
                   id="line237" /><line
                   style="fill:none;stroke:#000000;stroke-width:0.25;stroke-miterlimit:10"
                   x1="76"
                   x2="76"
                   y1="160"
                   y2="-32"
                   id="line239" /><line
                   style="fill:none;stroke:#000000;stroke-width:0.25;stroke-miterlimit:10"
                   x1="80"
                   x2="80"
                   y1="160"
                   y2="-32"
                   id="line241" /><line
                   style="fill:none;stroke:#000000;stroke-width:0.25;stroke-miterlimit:10"
                   x1="84"
                   x2="84"
                   y1="160"
                   y2="-32"
                   id="line243" /><line
                   style="fill:none;stroke:#000000;stroke-width:0.25;stroke-miterlimit:10"
                   x1="88"
                   x2="88"
                   y1="160"
                   y2="-32"
                   id="line245" /><line
                   style="fill:none;stroke:#000000;stroke-width:0.25;stroke-miterlimit:10"
                   x1="92"
                   x2="92"
                   y1="160"
                   y2="-32"
                   id="line247" /><line
                   style="fill:none;stroke:#000000;stroke-width:0.25;stroke-miterlimit:10"
                   x1="96"
                   x2="96"
                   y1="160"
                   y2="-32"
                   id="line249" /><line
                   style="fill:none;stroke:#000000;stroke-width:0.25;stroke-miterlimit:10"
                   x1="100"
                   x2="100"
                   y1="160"
                   y2="-32"
                   id="line251" /><line
                   style="fill:none;stroke:#000000;stroke-width:0.25;stroke-miterlimit:10"
                   x1="104"
                   x2="104"
                   y1="160"
                   y2="-32"
                   id="line253" /><line
                   style="fill:none;stroke:#000000;stroke-width:0.25;stroke-miterlimit:10"
                   x1="108"
                   x2="108"
                   y1="160"
                   y2="-32"
                   id="line255" /><line
                   style="fill:none;stroke:#000000;stroke-width:0.25;stroke-miterlimit:10"
                   x1="112"
                   x2="112"
                   y1="160"
                   y2="-32"
                   id="line257" /><line
                   style="fill:none;stroke:#000000;stroke-width:0.25;stroke-miterlimit:10"
                   x1="116"
                   x2="116"
                   y1="160"
                   y2="-32"
                   id="line259" /><line
                   style="fill:none;stroke:#000000;stroke-width:0.25;stroke-miterlimit:10"
                   x1="120"
                   x2="120"
                   y1="160"
                   y2="-32"
                   id="line261" /><line
                   style="fill:none;stroke:#000000;stroke-width:0.25;stroke-miterlimit:10"
                   x1="124"
                   x2="124"
                   y1="160"
                   y2="-32"
                   id="line263" /><line
                   style="fill:none;stroke:#000000;stroke-width:0.25;stroke-miterlimit:10"
                   x1="128"
                   x2="128"
                   y1="160"
                   y2="-32"
                   id="line265" /><line
                   style="fill:none;stroke:#000000;stroke-width:0.25;stroke-miterlimit:10"
                   x1="132"
                   x2="132"
                   y1="160"
                   y2="-32"
                   id="line267" /><line
                   style="fill:none;stroke:#000000;stroke-width:0.25;stroke-miterlimit:10"
                   x1="136"
                   x2="136"
                   y1="160"
                   y2="-32"
                   id="line269" /><line
                   style="fill:none;stroke:#000000;stroke-width:0.25;stroke-miterlimit:10"
                   x1="137"
                   x2="137"
                   y1="166.05"
                   y2="-25.950001"
                   id="line271" /><line
                   style="fill:none;stroke:#000000;stroke-width:0.25;stroke-miterlimit:10"
                   x1="144"
                   x2="144"
                   y1="160"
                   y2="-32"
                   id="line273" /><line
                   style="fill:none;stroke:#000000;stroke-width:0.25;stroke-miterlimit:10"
                   x1="148"
                   x2="148"
                   y1="160"
                   y2="-32"
                   id="line275" /><line
                   style="fill:none;stroke:#000000;stroke-width:0.25;stroke-miterlimit:10"
                   x1="152"
                   x2="152"
                   y1="160"
                   y2="-32"
                   id="line277" /><line
                   style="fill:none;stroke:#000000;stroke-width:0.25;stroke-miterlimit:10"
                   x1="156"
                   x2="156"
                   y1="160"
                   y2="-32"
                   id="line279" /></g><g
                 id="g377"><line
                   style="fill:none;stroke:#000000;stroke-width:0.25;stroke-miterlimit:10"
                   x1="-32"
                   x2="160"
                   y1="-28"
                   y2="-28"
                   id="line283" /><line
                   style="fill:none;stroke:#000000;stroke-width:0.25;stroke-miterlimit:10"
                   x1="-32"
                   x2="160"
                   y1="-24"
                   y2="-24"
                   id="line285" /><line
                   style="fill:none;stroke:#000000;stroke-width:0.25;stroke-miterlimit:10"
                   x1="-32"
                   x2="160"
                   y1="-20"
                   y2="-20"
                   id="line287" /><line
                   style="fill:none;stroke:#000000;stroke-width:0.25;stroke-miterlimit:10"
                   x1="-32"
                   x2="160"
                   y1="-16"
                   y2="-16"
                   id="line289" /><line
                   style="fill:none;stroke:#000000;stroke-width:0.25;stroke-miterlimit:10"
                   x1="-32"
                   x2="160"
                   y1="-12"
                   y2="-12"
                   id="line291" /><line
                   style="fill:none;stroke:#000000;stroke-width:0.25;stroke-miterlimit:10"
                   x1="-32"
                   x2="160"
                   y1="-8"
                   y2="-8"
                   id="line293" /><line
                   style="fill:none;stroke:#000000;stroke-width:0.25;stroke-miterlimit:10"
                   x1="-32"
                   x2="160"
                   y1="-4"
                   y2="-4"
                   id="line295" /><line
                   style="fill:none;stroke:#000000;stroke-width:0.25;stroke-miterlimit:10"
                   x1="-32"
                   x2="160"
                   y1="0"
                   y2="0"
                   id="line297" /><line
                   style="fill:none;stroke:#000000;stroke-width:0.25;stroke-miterlimit:10"
                   x1="-32"
                   x2="160"
                   y1="4"
                   y2="4"
                   id="line299" /><line
                   style="fill:none;stroke:#000000;stroke-width:0.25;stroke-miterlimit:10"
                   x1="-32"
                   x2="160"
                   y1="8"
                   y2="8"
                   id="line301" /><line
                   style="fill:none;stroke:#000000;stroke-width:0.25;stroke-miterlimit:10"
                   x1="-32"
                   x2="160"
                   y1="12"
                   y2="12"
                   id="line303" /><line
                   style="fill:none;stroke:#000000;stroke-width:0.25;stroke-miterlimit:10"
                   x1="-32"
                   x2="160"
                   y1="16"
                   y2="16"
                   id="line305" /><line
                   style="fill:none;stroke:#000000;stroke-width:0.25;stroke-miterlimit:10"
                   x1="-32"
                   x2="160"
                   y1="20"
                   y2="20"
                   id="line307" /><line
                   style="fill:none;stroke:#000000;stroke-width:0.25;stroke-miterlimit:10"
                   x1="-32"
                   x2="160"
                   y1="24"
                   y2="24"
                   id="line309" /><line
                   style="fill:none;stroke:#000000;stroke-width:0.25;stroke-miterlimit:10"
                   x1="-32"
                   x2="160"
                   y1="28"
                   y2="28"
                   id="line311" /><line
                   style="fill:none;stroke:#000000;stroke-width:0.25;stroke-miterlimit:10"
                   x1="-32"
                   x2="160"
                   y1="32"
                   y2="32"
                   id="line313" /><line
                   style="fill:none;stroke:#000000;stroke-width:0.25;stroke-miterlimit:10"
                   x1="-32"
                   x2="160"
                   y1="36"
                   y2="36"
                   id="line315" /><line
                   style="fill:none;stroke:#000000;stroke-width:0.25;stroke-miterlimit:10"
                   x1="-32"
                   x2="160"
                   y1="40"
                   y2="40"
                   id="line317" /><line
                   style="fill:none;stroke:#000000;stroke-width:0.25;stroke-miterlimit:10"
                   x1="-32"
                   x2="160"
                   y1="44"
                   y2="44"
                   id="line319" /><line
                   style="fill:none;stroke:#000000;stroke-width:0.25;stroke-miterlimit:10"
                   x1="-32"
                   x2="160"
                   y1="48"
                   y2="48"
                   id="line321" /><line
                   style="fill:none;stroke:#000000;stroke-width:0.25;stroke-miterlimit:10"
                   x1="-32"
                   x2="160"
                   y1="52"
                   y2="52"
                   id="line323" /><line
                   style="fill:none;stroke:#000000;stroke-width:0.25;stroke-miterlimit:10"
                   x1="-32"
                   x2="160"
                   y1="56"
                   y2="56"
                   id="line325" /><line
                   style="fill:none;stroke:#000000;stroke-width:0.25;stroke-miterlimit:10"
                   x1="-32"
                   x2="160"
                   y1="60"
                   y2="60"
                   id="line327" /><line
                   style="fill:none;stroke:#000000;stroke-width:0.25;stroke-miterlimit:10"
                   x1="-32"
                   x2="160"
                   y1="64"
                   y2="64"
                   id="line329" /><line
                   style="fill:none;stroke:#000000;stroke-width:0.25;stroke-miterlimit:10"
                   x1="-32"
                   x2="160"
                   y1="68"
                   y2="68"
                   id="line331" /><line
                   style="fill:none;stroke:#000000;stroke-width:0.25;stroke-miterlimit:10"
                   x1="-32"
                   x2="160"
                   y1="72"
                   y2="72"
                   id="line333" /><line
                   style="fill:none;stroke:#000000;stroke-width:0.25;stroke-miterlimit:10"
                   x1="-32"
                   x2="160"
                   y1="76"
                   y2="76"
                   id="line335" /><line
                   style="fill:none;stroke:#000000;stroke-width:0.25;stroke-miterlimit:10"
                   x1="-32"
                   x2="160"
                   y1="80"
                   y2="80"
                   id="line337" /><line
                   style="fill:none;stroke:#000000;stroke-width:0.25;stroke-miterlimit:10"
                   x1="-32"
                   x2="160"
                   y1="84"
                   y2="84"
                   id="line339" /><line
                   style="fill:none;stroke:#000000;stroke-width:0.25;stroke-miterlimit:10"
                   x1="-32"
                   x2="160"
                   y1="88"
                   y2="88"
                   id="line341" /><line
                   style="fill:none;stroke:#000000;stroke-width:0.25;stroke-miterlimit:10"
                   x1="-32"
                   x2="160"
                   y1="92"
                   y2="92"
                   id="line343" /><line
                   style="fill:none;stroke:#000000;stroke-width:0.25;stroke-miterlimit:10"
                   x1="-32"
                   x2="160"
                   y1="96"
                   y2="96"
                   id="line345" /><line
                   style="fill:none;stroke:#000000;stroke-width:0.25;stroke-miterlimit:10"
                   x1="-32"
                   x2="160"
                   y1="100"
                   y2="100"
                   id="line347" /><line
                   style="fill:none;stroke:#000000;stroke-width:0.25;stroke-miterlimit:10"
                   x1="-32"
                   x2="160"
                   y1="104"
                   y2="104"
                   id="line349" /><line
                   style="fill:none;stroke:#000000;stroke-width:0.25;stroke-miterlimit:10"
                   x1="-32"
                   x2="160"
                   y1="108"
                   y2="108"
                   id="line351" /><line
                   style="fill:none;stroke:#000000;stroke-width:0.25;stroke-miterlimit:10"
                   x1="-32"
                   x2="160"
                   y1="112"
                   y2="112"
                   id="line353" /><line
                   style="fill:none;stroke:#000000;stroke-width:0.25;stroke-miterlimit:10"
                   x1="-32"
                   x2="160"
                   y1="116"
                   y2="116"
                   id="line355" /><line
                   style="fill:none;stroke:#000000;stroke-width:0.25;stroke-miterlimit:10"
                   x1="-32"
                   x2="160"
                   y1="120"
                   y2="120"
                   id="line357" /><line
                   style="fill:none;stroke:#000000;stroke-width:0.25;stroke-miterlimit:10"
                   x1="-32"
                   x2="160"
                   y1="124"
                   y2="124"
                   id="line359" /><line
                   style="fill:none;stroke:#000000;stroke-width:0.25;stroke-miterlimit:10"
                   x1="-32"
                   x2="160"
                   y1="128"
                   y2="128"
                   id="line361" /><line
                   style="fill:none;stroke:#000000;stroke-width:0.25;stroke-miterlimit:10"
                   x1="-32"
                   x2="160"
                   y1="132"
                   y2="132"
                   id="line363" /><line
                   style="fill:none;stroke:#000000;stroke-width:0.25;stroke-miterlimit:10"
                   x1="-32"
                   x2="160"
                   y1="136"
                   y2="136"
                   id="line365" /><line
                   style="fill:none;stroke:#000000;stroke-width:0.25;stroke-miterlimit:10"
                   x1="-32"
                   x2="160"
                   y1="140"
                   y2="140"
                   id="line367" /><line
                   style="fill:none;stroke:#000000;stroke-width:0.25;stroke-miterlimit:10"
                   x1="-32"
                   x2="160"
                   y1="144"
                   y2="144"
                   id="line369" /><line
                   style="fill:none;stroke:#000000;stroke-width:0.25;stroke-miterlimit:10"
                   x1="-32"
                   x2="160"
                   y1="148"
                   y2="148"
                   id="line371" /><line
                   style="fill:none;stroke:#000000;stroke-width:0.25;stroke-miterlimit:10"
                   x1="-32"
                   x2="160"
                   y1="152"
                   y2="152"
                   id="line373" /><line
                   style="fill:none;stroke:#000000;stroke-width:0.25;stroke-miterlimit:10"
                   x1="-32"
                   x2="160"
                   y1="156"
                   y2="156"
                   id="line375" /></g><path
                 d="m 159.75,-31.75 v 191.5 h -191.5 v -191.5 h 191.5 M 160,-32 H -32 v 192 h 192 z"
                 id="path379" /></g></g><g
             id="g393"><rect
               height="128"
               style="opacity:0.3;fill:#f44336"
               width="4"
               x="0"
               y="0"
               id="rect385" /><rect
               height="128"
               style="opacity:0.3;fill:#f44336"
               width="4"
               x="124"
               y="0"
               id="rect387" /><rect
               height="120"
               style="opacity:0.3;fill:#f44336"
               transform="rotate(90,64,2)"
               width="4"
               x="62"
               y="-58"
               id="rect389" /><rect
               height="120"
               style="opacity:0.3;fill:#f44336"
               transform="rotate(90,64,126)"
               width="4"
               x="62"
               y="66"
               id="rect391" /></g></g></g></g><g
       id="Layer_3"
       style="display:none"><rect
         id="XMLID_46_"
         height="128"
         style="display:inline;fill:none;stroke:#616161;stroke-width:0.25;stroke-miterlimit:10"
         transform="rotate(-90,64,64)"
         width="128"
         x="0"
         y="0" /><g
         id="XMLID_9_"
         style="display:inline"><rect
           id="XMLID_45_"
           height="128"
           style="fill:none;stroke:#e0e0e0;stroke-width:0.25;stroke-miterlimit:10"
           width="128"
           x="0"
           y="0" /><line
           id="XMLID_44_"
           style="fill:none;stroke:#e0e0e0;stroke-width:0.25;stroke-miterlimit:10"
           x1="8"
           x2="8"
           y1="0"
           y2="128" /><line
           id="XMLID_43_"
           style="fill:none;stroke:#e0e0e0;stroke-width:0.25;stroke-miterlimit:10"
           x1="16"
           x2="16"
           y1="0"
           y2="128" /><line
           id="XMLID_42_"
           style="fill:none;stroke:#e0e0e0;stroke-width:0.25;stroke-miterlimit:10"
           x1="24"
           x2="24"
           y1="0"
           y2="128" /><line
           id="XMLID_41_"
           style="fill:none;stroke:#e0e0e0;stroke-width:0.25;stroke-miterlimit:10"
           x1="32"
           x2="32"
           y1="0"
           y2="128" /><line
           id="XMLID_40_"
           style="fill:none;stroke:#e0e0e0;stroke-width:0.25;stroke-miterlimit:10"
           x1="40"
           x2="40"
           y1="0"
           y2="128" /><line
           id="XMLID_39_"
           style="fill:none;stroke:#e0e0e0;stroke-width:0.25;stroke-miterlimit:10"
           x1="48"
           x2="48"
           y1="0"
           y2="128" /><line
           id="XMLID_38_"
           style="fill:none;stroke:#e0e0e0;stroke-width:0.25;stroke-miterlimit:10"
           x1="56"
           x2="56"
           y1="0"
           y2="128" /><line
           id="XMLID_37_"
           style="fill:none;stroke:#e0e0e0;stroke-width:0.25;stroke-miterlimit:10"
           x1="63.990002"
           x2="63.990002"
           y1="0"
           y2="128" /><line
           id="XMLID_36_"
           style="fill:none;stroke:#e0e0e0;stroke-width:0.25;stroke-miterlimit:10"
           x1="71.989998"
           x2="71.989998"
           y1="0"
           y2="128" /><line
           id="XMLID_35_"
           style="fill:none;stroke:#e0e0e0;stroke-width:0.25;stroke-miterlimit:10"
           x1="79.989998"
           x2="79.989998"
           y1="0"
           y2="128" /><line
           id="XMLID_34_"
           style="fill:none;stroke:#e0e0e0;stroke-width:0.25;stroke-miterlimit:10"
           x1="87.989998"
           x2="87.989998"
           y1="0"
           y2="128" /><line
           id="XMLID_33_"
           style="fill:none;stroke:#e0e0e0;stroke-width:0.25;stroke-miterlimit:10"
           x1="95.989998"
           x2="95.989998"
           y1="0"
           y2="128" /><line
           id="XMLID_32_"
           style="fill:none;stroke:#e0e0e0;stroke-width:0.25;stroke-miterlimit:10"
           x1="103.99"
           x2="103.99"
           y1="0"
           y2="128" /><line
           id="XMLID_47_"
           style="fill:none;stroke:#e0e0e0;stroke-width:0.25;stroke-miterlimit:10"
           x1="111.99"
           x2="111.99"
           y1="0"
           y2="128" /><line
           id="XMLID_48_"
           style="fill:none;stroke:#e0e0e0;stroke-width:0.25;stroke-miterlimit:10"
           x1="119.99"
           x2="119.99"
           y1="0"
           y2="128" /><line
           id="XMLID_49_"
           style="fill:none;stroke:#e0e0e0;stroke-width:0.25;stroke-miterlimit:10"
           x1="128"
           x2="0"
           y1="120"
           y2="120" /><line
           id="XMLID_50_"
           style="fill:none;stroke:#e0e0e0;stroke-width:0.25;stroke-miterlimit:10"
           x1="128"
           x2="0"
           y1="112"
           y2="112" /><line
           id="XMLID_51_"
           style="fill:none;stroke:#e0e0e0;stroke-width:0.25;stroke-miterlimit:10"
           x1="128"
           x2="0"
           y1="104"
           y2="104" /><line
           id="XMLID_52_"
           style="fill:none;stroke:#e0e0e0;stroke-width:0.25;stroke-miterlimit:10"
           x1="128"
           x2="0"
           y1="96"
           y2="96" /><line
           id="XMLID_53_"
           style="fill:none;stroke:#e0e0e0;stroke-width:0.25;stroke-miterlimit:10"
           x1="128"
           x2="0"
           y1="88"
           y2="88" /><line
           id="XMLID_54_"
           style="fill:none;stroke:#e0e0e0;stroke-width:0.25;stroke-miterlimit:10"
           x1="128"
           x2="0"
           y1="80"
           y2="80" /><line
           id="XMLID_55_"
           style="fill:none;stroke:#e0e0e0;stroke-width:0.25;stroke-miterlimit:10"
           x1="128"
           x2="0"
           y1="72"
           y2="72" /><line
           id="XMLID_56_"
           style="fill:none;stroke:#e0e0e0;stroke-width:0.25;stroke-miterlimit:10"
           x1="128"
           x2="0"
           y1="64.010002"
           y2="64.010002" /><line
           id="XMLID_57_"
           style="fill:none;stroke:#e0e0e0;stroke-width:0.25;stroke-miterlimit:10"
           x1="128"
           x2="0"
           y1="56.009998"
           y2="56.009998" /><line
           id="XMLID_58_"
           style="fill:none;stroke:#e0e0e0;stroke-width:0.25;stroke-miterlimit:10"
           x1="128"
           x2="0"
           y1="48.009998"
           y2="48.009998" /><line
           id="XMLID_60_"
           style="fill:none;stroke:#e0e0e0;stroke-width:0.25;stroke-miterlimit:10"
           x1="128"
           x2="0"
           y1="40.009998"
           y2="40.009998" /><line
           id="XMLID_61_"
           style="fill:none;stroke:#e0e0e0;stroke-width:0.25;stroke-miterlimit:10"
           x1="128"
           x2="0"
           y1="32.009998"
           y2="32.009998" /><line
           id="XMLID_62_"
           style="fill:none;stroke:#e0e0e0;stroke-width:0.25;stroke-miterlimit:10"
           x1="128"
           x2="0"
           y1="24.01"
           y2="24.01" /><line
           id="XMLID_63_"
           style="fill:none;stroke:#e0e0e0;stroke-width:0.25;stroke-miterlimit:10"
           x1="128"
           x2="0"
           y1="16.01"
           y2="16.01" /><line
           id="XMLID_64_"
           style="fill:none;stroke:#e0e0e0;stroke-width:0.25;stroke-miterlimit:10"
           x1="128"
           x2="0"
           y1="8.0100002"
           y2="8.0100002" /></g><use
         id="XMLID_31_"
         height="129"
         style="display:inline;overflow:visible"
         transform="matrix(1,0,0,-1,64,64)"
         width="129"
         x="-64.5"
         xlink:href="#Grid"
         y="-64.5" /></g></g><path
     id="path1083"
     d="m 52.222155,31.882755 c -0.164181,-0.07892 -0.254875,-0.211754 -0.26924,-0.367319 -0.02875,-0.311093 0.302199,-0.294627 0.33933,-0.06274 0.02851,0.138537 -0.0053,0.282855 -0.07012,0.430019 z m -1.832294,2.240093 c 0.269513,0.539834 0.750002,0.307179 0.514473,-0.204421 -0.272386,-0.570947 -0.730133,-0.261966 -0.514473,0.204421 z m -1.13613,0.606992 c 0.141692,0.175139 0.255136,0.384284 0.351591,0.579312 0.09648,0.194999 0.06822,0.229 -0.14407,0.138789 -0.164182,-0.07892 -0.362307,-0.186156 -0.52649,-0.265095 -0.198144,-0.107188 -0.200987,-0.138341 -0.08233,-0.212029 0.132793,-0.09072 0.265606,-0.181423 0.401283,-0.241021 z M 47.76027,32.828518 c -0.141692,-0.175138 -0.107952,-0.319456 0.073,-0.398914 0.135687,-0.05959 0.229004,-0.06822 0.36781,0.07582 0.453307,0.491456 0.8415,0.957586 1.125126,1.480434 0.240249,-0.116327 0.429518,-0.275004 0.58193,-0.49303 0.152381,-0.218039 0.256706,-0.447286 0.346916,-0.659552 0.0732,-0.226382 0.155283,-0.186902 0.290973,-0.2465 0.271352,-0.119198 0.361561,-0.331464 0.616427,-0.119721 0.186918,0.155291 0.387903,0.293635 0.631338,0.380884 0.243361,0.08734 0.342197,-0.03163 0.305093,-0.263497 -0.424793,-0.352917 -0.654574,-0.802303 -0.505294,-1.223976 0.149263,-0.421664 0.488349,-0.656926 0.97823,-0.278646 0.203903,0.169406 0.187428,0.500351 0.08913,0.964376 0.158405,0.01676 0.336444,-0.09385 0.45775,-0.308988 0.211496,-0.427423 0.389267,-0.710532 0.635265,-0.764642 0.138566,-0.02851 0.192153,-0.127555 0.277346,0.115559 0.04259,0.121595 0.05124,0.214885 -0.160768,0.297236 -0.243125,0.08523 -0.367302,0.269254 -0.434723,0.55789 -0.08443,0.274488 -0.199989,0.551844 -0.468471,0.702155 -0.163927,0.09358 -0.302465,0.122073 -0.463762,0.07423 0.01435,0.155567 -0.01647,0.330953 -0.06144,0.523359 -0.07319,0.22639 -0.186132,0.362332 -0.412524,0.289122 -0.387683,-0.121035 -0.65667,-0.315806 -0.985013,-0.473708 -0.164174,-0.07892 -0.356578,-0.123907 -0.446769,0.08835 0.495129,0.09542 0.809604,0.442869 0.807765,1.101892 -0.0021,0.486498 -0.340899,0.894305 -0.824783,0.750781 -0.339587,-0.109795 -0.521277,-0.547925 -0.623733,-0.977711 -0.08179,0.133077 -0.208839,0.286009 -0.341706,0.376668 0.294866,0.474747 0.552887,0.89014 0.652478,1.288802 0.0711,0.260113 -0.07012,0.430028 -0.358667,0.362593 -0.577207,-0.134901 -1.072584,-0.402864 -1.550977,-0.656705 -0.345322,-0.172038 -0.399418,-0.418047 -0.119722,-0.616434 0.234507,-0.178534 0.471869,-0.325982 0.692247,-0.487528 C 48.553783,33.774895 48.16559,33.30878 47.760391,32.82855 Z m 0.464481,4.176949 c -0.107716,-0.146913 -0.141949,-0.347689 -0.142209,-0.520222 -0.006,-0.234749 0.15795,-0.328318 0.305343,-0.09097 0.09355,0.163942 0.156056,0.330697 0.17043,0.486243 -0.02222,0.268734 -0.172006,0.345336 -0.333564,0.12495 z m -1.695068,1.348893 c -0.147147,-0.06489 -0.206748,-0.200547 -0.195796,-0.42115 0.01934,-0.299849 0.123918,-0.356575 0.339068,-0.23527 0.198153,0.107187 0.444428,0.225596 0.656677,0.31581 -0.01463,-0.328079 -0.08025,-0.698511 -0.157094,-1.020842 -0.03999,-0.262995 0.05019,-0.475259 0.236605,-0.665047 0.0706,-0.08498 0.226128,-0.09933 0.282594,-0.167295 0.110031,-0.167069 0.118444,-0.246257 0.217226,-0.365208 0.141172,-0.169924 0.341944,-0.204168 0.562841,-0.02065 0.169915,0.141171 0.311615,0.316314 0.495609,0.440538 0.184068,0.12413 0.342472,0.140887 0.455388,0.0049 0.112933,-0.135933 0.175144,-0.141701 0.206537,0.02796 0.0455,0.15265 0.01176,0.296979 -0.03895,0.42716 -0.03662,0.113207 -0.10431,0.229266 -0.228777,0.240733 -0.277098,0.05698 -0.35919,0.01751 -0.370171,0.238144 -0.03609,0.458263 -0.301426,0.812222 -0.646764,0.640209 -0.181162,-0.09305 -0.524116,-0.57907 -0.583987,-0.887265 -0.06561,-0.370432 -0.19267,-0.217495 -0.163924,0.09357 0.05175,0.559961 0.176959,1.066072 0.256949,1.592042 0.05412,0.246 -0.01648,0.330962 -0.245735,0.22666 -0.384803,-0.08993 -0.716019,-0.278939 -1.078339,-0.465078 z m -0.848564,-0.0157 c -0.200986,-0.13834 -0.481531,-0.457481 -0.73954,-0.87289 -0.351592,-0.579315 -0.01802,-0.704259 0.324948,-0.218276 0.25224,0.353197 0.416944,0.777198 0.414589,1.091163 z m -0.749002,2.249749 c 0.05698,0.277113 0.181675,0.438145 0.323107,0.440755 0.155562,-0.0144 0.200537,-0.206756 0.126533,-0.497994 -0.09672,-0.367553 -0.323108,-0.440755 -0.385341,-0.43499 -0.107446,0.02559 -0.101422,0.260374 -0.06431,0.492245 z m 0.677872,-0.643077 c 0.192665,0.21749 0.331239,0.188977 0.364677,-0.127829 0.01676,-0.158412 0.03346,-0.316833 -0.029,-0.483623 -0.846757,-0.674698 -1.436467,-1.624217 -1.536844,-2.540484 -0.07737,-0.66741 0.457224,-0.654074 1.018229,-0.01567 0.54111,0.593187 0.734558,1.32828 0.862905,2.038031 0.356834,0.296457 0.662426,0.378019 1.035994,0.51606 0.243361,0.08734 0.254876,0.211753 0.207035,0.37305 -0.05336,0.271605 -0.146647,0.280241 -0.387161,0.224024 -0.257511,-0.07031 -0.551852,-0.200001 -0.798104,-0.318423 0.023,0.248876 0.06298,0.51186 0.03789,0.74949 -0.01908,0.472382 -0.154773,0.531987 -0.590548,0.399702 -0.02511,0.237629 -0.01623,0.503489 -0.151637,0.735622 -0.149539,0.249123 -0.517096,0.345851 -0.692766,0.142465 -0.419321,-0.463221 -0.502161,-1.02033 -0.415366,-1.608777 0.08966,-0.557345 0.553466,-0.631555 1.074701,-0.08363 z m -2.38385,-1.520972 c 0.0049,-0.455393 -0.458787,-0.381159 -0.511862,0.06298 -0.06432,0.492256 -0.06379,0.837326 -0.09387,1.53035 -0.04392,0.882545 0.793653,1.118879 1.331895,1.680943 0.31161,0.31631 0.286502,0.553948 -0.06982,0.60256 -0.262984,0.04 -0.358931,0.190042 -0.301937,0.467164 0.07973,0.353437 0.158936,0.361801 0.359671,0.3276 0.854064,-0.09462 1.206465,-0.864496 0.733036,-1.573739 -0.275003,-0.429515 -0.756247,-0.714497 -1.175287,-1.005211 -0.322846,-0.268224 -0.308987,-0.45775 -0.323618,-0.785829 0.0079,-0.424281 0.02982,-0.865557 0.05179,-1.306834 z M 55.27666,27.929659 c -0.138776,-0.144078 -0.167282,-0.282612 -0.119463,-0.443884 0.08157,-0.305595 0.392917,-0.161806 0.350825,0.06169 -0.03373,0.144308 -0.115559,0.277357 -0.231342,0.382192 z m 3.290014,-3.441512 c -0.10195,-0.0847 -0.150294,-0.268501 -0.181683,-0.438139 -0.02012,-0.217764 0.146649,-0.280251 0.33645,-0.09383 0.121779,0.129961 0.144535,0.206289 0.158929,0.36181 0.04,0.262972 -0.123916,0.356565 -0.313696,0.170167 z m 2.662606,-3.101145 c -0.10195,-0.0847 -0.181429,-0.265581 -0.21278,-0.435262 -0.03711,-0.231881 0.143778,-0.31135 0.33357,-0.124959 0.121786,0.129974 0.175676,0.20338 0.190048,0.358938 0.0711,0.260111 -0.106929,0.370689 -0.310834,0.201286 z M 65.19639,16.7848 c -0.10195,-0.0847 -0.116317,-0.24027 -0.133584,-0.426904 -0.03711,-0.231875 0.143788,-0.311343 0.347691,-0.141939 0.121787,0.129974 0.240734,0.228789 0.221155,0.356053 -0.03917,0.254635 -0.231346,0.382202 -0.435262,0.21279 z m -5.141167,6.326498 c -0.133095,-0.08179 -0.277629,-0.288079 -0.34298,-0.485978 -0.08809,-0.27423 0.08995,-0.384813 0.341945,-0.204168 0.184072,0.124143 0.303011,0.222952 0.351354,0.406754 0.122078,0.302466 -0.08422,0.447025 -0.350305,0.283374 z m -5.85822,5.357408 c -0.163922,0.09357 -0.203645,0.0031 -0.30849,-0.11266 -0.232411,-0.307936 -0.382713,-0.576427 -0.583997,-0.887259 -0.198422,-0.279698 -0.50087,-0.157642 -0.438134,0.181678 0.02851,0.138537 0.105086,0.288348 0.164682,0.424028 0.0625,0.166769 -0.01102,0.220636 -0.175139,0.141691 -0.212282,-0.09018 -0.455644,-0.177514 -0.667916,-0.267707 -0.212285,-0.09018 -0.172761,-0.172319 0.0588,-0.38193 1.143985,-1.031283 2.284832,-2.266201 3.468039,-3.552094 0.186416,-0.18976 0.217235,-0.365203 0.103737,-0.57434 -0.09648,-0.195004 -0.20675,-0.200549 -0.376183,0.0034 -1.248028,1.433084 -2.564045,2.809682 -3.851817,4.152305 -0.228764,0.240731 -0.259582,0.416174 0.05463,0.59106 0.546383,0.310294 1.12095,0.586646 1.737912,0.811953 -0.08762,0.07083 -0.17804,0.11057 -0.24862,0.195521 -0.141172,0.169926 -0.155081,0.359435 0.24964,0.494611 0.243361,0.08734 0.642308,0.160249 0.772752,0.383513 0.153183,0.299582 0.308995,0.457742 0.46217,0.757332 0.113473,0.209124 0.212508,0.262762 0.418786,0.118177 0.19216,-0.127564 0.257009,-0.27472 0.146405,-0.452774 -0.263768,-0.477621 -0.558635,-0.952368 -0.836515,-1.412987 0.234506,-0.178535 0.497222,-0.39107 0.751589,-0.524394 0.283107,0.177781 0.580355,0.33853 1.03548,0.17098 0.455129,-0.16756 0.675247,-0.501654 0.674476,-1.019261 -0.0089,-0.265854 -0.02639,-0.625048 -0.400483,-1.108157 0.01421,-0.01702 0.04525,-0.01984 0.07347,-0.05381 0.07372,0.118674 0.442051,0.539574 0.767478,0.666406 0.325484,0.126779 0.477876,-0.09122 0.497224,-0.391072 0.02197,-0.441276 -0.128601,-0.882291 -0.445956,-1.260828 -0.175676,-0.20338 -0.105085,-0.288348 0.101726,-0.08781 0.328602,0.330427 0.68828,0.658033 1.098471,0.682838 0.220633,0.01101 0.33357,-0.124946 0.299352,-0.32569 -0.03425,-0.200778 -0.09958,-0.398671 -0.06874,-0.574079 0.534865,0.185872 0.684139,-0.235795 0.660587,-0.829755 0.483892,0.143526 0.670285,-0.04626 0.646772,-0.640201 0,0 0,0 -0.0029,-0.03118 0.07921,0.0084 0.158402,0.01676 0.265857,-0.0089 0.262991,-0.04 0.375673,-0.348451 0.471336,-0.671061 0.230552,0.966993 0.330919,1.883267 0.790224,2.609491 0.348719,0.548202 0.92567,0.51057 0.989736,-0.154223 0.06667,-0.806212 -0.34766,-1.724843 -1.390184,-2.820727 -0.02586,-0.279975 -0.04888,-0.528848 -0.07475,-0.808825 0.22665,0.245726 0.512602,0.454656 0.766743,0.148758 0.169404,-0.203896 0.157631,-0.500871 0.143001,-0.828948 0.888556,0.278682 0.536444,-0.645697 0.524419,-1.115213 0.101951,0.0847 0.308699,0.285251 0.407807,0.338806 0.297258,0.160749 0.381668,-0.113712 0.406771,-0.351341 0.03347,-0.316829 0.0217,-0.61381 0.01,-0.910774 0.01101,-0.220646 0.02511,-0.237629 0.149806,-0.0766 0.07081,0.08762 0.17276,0.172319 0.271874,0.225878 0.283099,0.17778 0.424281,0.0079 0.44363,-0.292004 -0.006,-0.234748 -0.01203,-0.4695 -0.04914,-0.701382 -0.02586,-0.279977 -0.01176,-0.296964 0.146915,-0.107716 0.05381,0.07349 0.124696,0.16103 0.209663,0.231614 0.223733,0.214665 0.350818,0.06169 0.398403,-0.272127 0.03346,-0.316833 0.03582,-0.630808 0.0693,-0.947649 0.317088,0.206011 0.599944,0.211238 0.862675,-0.0012 0.378539,-0.317357 0.482583,-0.719158 0.252814,-1.168535 -0.195795,-0.421151 -0.527011,-0.610156 -0.724895,-0.544817 0.443367,-0.464542 0.869771,-0.943177 1.330119,-1.393595 0.158193,-0.155784 0.191902,-0.300098 0.02197,-0.441277 -0.118946,-0.09882 -0.257508,-0.07031 -0.426895,0.133577 -0.409392,0.492768 -0.835799,0.971387 -1.245189,1.464155 -0.197636,0.23789 -0.284958,0.481268 -0.338308,0.752873 -0.0813,0.478129 0.09488,1.026597 0.0079,1.442506 -0.04205,0.223522 -0.07032,0.257497 -0.180904,0.07947 -0.147453,-0.237352 -0.294868,-0.474746 -0.470539,-0.678132 -0.189751,-0.186437 -0.401802,-0.104063 -0.390043,0.19292 0.01203,0.469503 0.162593,0.910518 0.205717,1.377147 0.03711,0.231882 -0.03917,0.254634 -0.149807,0.07659 -0.164444,-0.25147 -0.342972,-0.485985 -0.57799,-0.652511 -0.269022,-0.19472 -0.444146,-0.05308 -0.367299,0.269253 0.09959,0.398663 0.216178,0.811447 0.214076,1.297943 0.006,0.234758 0.03738,0.404414 -0.158116,0.155832 -0.226658,-0.245732 -0.37696,-0.514222 -0.626074,-0.663777 -0.15008,-0.0959 -0.350817,-0.06169 -0.305093,0.263496 0.06561,0.370424 0.238667,0.715237 0.32127,1.099787 0.05124,0.214881 -0.04184,0.396055 -0.339069,0.235269 -0.181168,-0.09305 -0.379297,-0.200277 -0.560478,-0.293326 -0.345315,-0.172036 -0.540347,-0.07555 -0.613295,0.323367 -0.09253,0.526241 -0.06904,1.120182 -0.01441,1.711248 -0.472928,-0.364122 -0.722051,-0.513668 -0.891686,-0.482329 -0.32233,0.07684 -0.573821,0.241282 -0.573312,0.58634 -0.0053,0.282852 0.111099,0.5231 0.227419,0.763346 0.03974,0.09044 0.07657,0.149825 0.11631,0.240266 0.0029,0.03117 0.02276,0.07634 0.0256,0.10748 0.05411,0.245994 -0.01935,0.299843 -0.265614,0.181418 -0.280258,-0.146628 -0.447267,-0.256736 -0.72752,-0.403386 -0.232132,-0.135421 -0.534594,-0.01334 -0.576428,0.382705 -0.04733,0.506366 0.125985,1.023712 0.302174,1.572178 0.08809,0.274231 0.01462,0.328078 -0.223261,0.130438 -0.203902,-0.169407 -0.4248,-0.352923 -0.572252,-0.590274 -0.107704,-0.146909 -0.215655,-0.466377 -0.40496,-0.30766 -0.14691,0.107705 -0.07582,0.367814 -0.174633,0.486761 -0.183515,0.220895 -0.596553,0.164941 -0.530958,0.53536 0.03135,0.169681 0.167289,0.282619 0.54638,0.310295 0.0792,0.0084 0.237883,0.197633 0.300377,0.364402 0.09096,0.305342 -0.01068,0.393175 -0.273968,0.260643 -0.215143,-0.121312 -0.373825,-0.310574 -0.518361,-0.516864 -0.07081,-0.08762 -0.147453,-0.237351 -0.286017,-0.208843 -0.121585,0.04262 -0.121311,0.215137 -0.191894,0.300103 -0.129962,0.121787 -0.319449,0.107963 -0.401276,0.241026 -0.121311,0.215136 -0.123651,0.529101 0.286501,0.553946 0.0792,0.0084 0.172555,-2.85e-4 0.217763,-0.02012 0.342686,0.313486 0.504524,0.706367 0.247806,1.153643 -0.177782,0.283103 -0.502978,0.328852 -0.732241,0.224547 0.358668,-0.362593 0.434493,-0.730398 0.154002,-1.049599 -0.263481,-0.305108 -0.619817,-0.256463 -0.845691,0.01541 -0.299361,0.325699 -0.298792,0.670801 -0.17386,1.004368 -0.223252,0.130446 -0.384291,0.255139 -0.579301,0.351592 z m 7.129222,-4.674824 c 0.280472,0.319226 0.535637,0.70349 0.623986,1.150253 0.08261,0.384549 -0.06693,0.633675 -0.319455,0.107952 -0.158937,-0.361801 -0.244409,-0.777459 -0.304531,-1.258211 z"
     style="clip-rule:evenodd;fill:#ed1c24;fill-rule:evenodd;stroke-width:0.22091" /></svg>
